<svg width="1440" height="3500" viewBox="0 0 1440 3500" fill="none" xmlns="http://www.w3.org/2000/svg">
<g clip-path="url(#clip0)">
<path d="M1388.79 1497.52C1415.86 1499.85 1443.72 1504.78 1467.75 1536.1L1536 2532.5C919.5 2430.67 -259.6 2177.9 -44 1981.5C171.6 1785.1 549.167 1799.35 711 1831.03C767.999 1853.12 823.914 1786.38 874.435 1731.47C1027.87 1564.68 1209.47 1482.09 1388.79 1497.52Z" fill="#B6D2A5"/>
<path d="M1112.34 1547.36C1109.82 1533.78 1112.74 1519.86 1114.89 1506.22C1117.04 1492.58 1118.31 1478.04 1112.84 1465.43C1107.37 1452.82 1092.94 1443.38 1080.46 1448.35C1074.29 1450.8 1069.7 1456.17 1065.44 1461.39C1055.54 1473.5 1045.79 1486.19 1040.57 1501.1C1035.35 1516.01 1035.32 1533.7 1044.07 1546.72C1052.02 1558.56 1066.8 1566.55 1068.58 1580.84C1069.69 1589.7 1065.23 1598.17 1063.29 1606.88C1060.14 1621 1064.11 1636.75 1073.96 1647.06C1083.8 1657.38 1099.32 1661.68 1112.68 1657.29C1134.79 1650.01 1145.24 1621.97 1141.12 1598.37C1137 1574.77 1122.1 1554.89 1112.34 1547.36Z" fill="#009674"/>
<path d="M1479.08 1711.88C1484.44 1670.96 1466.07 1627.69 1433.2 1603.8C1425.31 1598.07 1416.06 1593.26 1406.43 1594.1C1393.66 1595.21 1383.57 1606.01 1377.75 1617.71C1365.31 1642.73 1367.82 1674.83 1384 1697.51C1390.93 1707.23 1400.31 1715.68 1403.52 1727.26C1409.37 1748.39 1392.75 1768.19 1380.04 1785.88C1368.27 1802.24 1358.77 1821.22 1358.04 1841.53C1357.31 1861.84 1367.04 1883.44 1385.09 1891.88C1394.55 1896.31 1405.42 1896.83 1415.67 1895.03C1444.81 1889.91 1469.64 1864.97 1475.2 1835.22C1481.95 1799.16 1462.55 1763.11 1463.34 1726.41C1463.57 1716.09 1470.61 1702.51 1479.08 1711.88Z" fill="#009674"/>
<path d="M1504.57 2103.06C1581.32 2056.41 1601.99 1969.92 1551.17 1908.08C1536.69 1890.46 1516.65 1874.58 1490.84 1865.51C1429.48 1843.93 1353.7 1866.33 1304.33 1899.91C1231.92 1949.17 1195.52 2031.64 1245.71 2093.15C1271.32 2124.54 1317.74 2150.36 1319.82 2186.56C1324.03 2259.82 1149.29 2290.91 1157.26 2364.01C1159.75 2386.8 1181.13 2406.5 1205.72 2421.37C1255.27 2451.33 1323.96 2467.1 1387.56 2456.9C1451.17 2446.68 1505.99 2407.87 1511.8 2362C1517.49 2317.05 1479.48 2276.01 1457.92 2233.52C1436.34 2191.03 1446.18 2138.54 1504.57 2103.06Z" fill="#59AB85"/>
<path d="M1099.96 2251.49C1082.41 2220.63 1075.58 2185.76 1080.48 2151.97C1082.05 2141.11 1085.24 2129.69 1094.72 2121.97C1101.25 2116.66 1110.17 2113.67 1119.2 2112.18C1148.6 2107.34 1179.82 2117.83 1200.52 2135.56C1221.22 2153.29 1232.35 2177.34 1236.74 2201.59C1238.39 2210.73 1239.08 2220.42 1234.6 2228.91C1230.44 2236.78 1222.35 2242.71 1214.89 2248.73C1191.83 2267.36 1171.79 2291.97 1175.12 2318.32C1177.64 2338.18 1192.96 2355.33 1199.87 2374.48C1206.77 2393.64 1200.1 2419.73 1176.31 2424.31C1166.42 2426.22 1156.15 2423.8 1146.43 2421.39C1120.91 2415.09 1094.84 2408.56 1073.31 2395.71C1051.78 2382.86 1035.25 2362.27 1037.15 2340.54C1038.5 2325.05 1048.73 2311.15 1058.69 2297.93C1074.37 2277.13 1090.04 2256.32 1099.96 2251.49Z" fill="#009674"/>
<path d="M808 1758.5C808 1758.5 806.407 1735.54 802.475 1721.05C800.109 1712.32 794.622 1701.86 785.967 1703.1C782.298 1703.63 779.269 1706.3 776.78 1709.15C764.234 1723.49 760.48 1745.45 767.508 1763.4C770.312 1770.56 774.638 1777 777.306 1784.22C780.265 1792.22 781.085 1801.06 779.649 1809.5C778.341 1817.19 775.256 1825.34 778.312 1832.48C779.548 1835.36 781.702 1837.74 784.128 1839.65C796.57 1849.44 816.908 1845.28 824.829 1831.32C829.817 1822.53 829.945 1811.47 827.245 1801.66C824.544 1791.85 819.278 1783.04 813.862 1774.53C810.462 1769.18 808 1758.5 808 1758.5Z" fill="#59AB85"/>
<path d="M1335.12 1386.21C1351.21 1358.13 1344.58 1323.34 1318.67 1299.86C1306.82 1289.12 1288.58 1280.28 1270.71 1283.78C1257.76 1286.32 1248.21 1294.8 1242.1 1303.84C1232.14 1318.57 1229.13 1335.94 1233.73 1352.12C1237.43 1365.11 1245.79 1377.15 1249.32 1390.17C1256.77 1417.74 1241.94 1445.57 1230.25 1472.27C1218.56 1498.98 1210.32 1529.82 1229.16 1554.06C1241.38 1569.78 1264.53 1580.27 1288.56 1580.96C1312.6 1581.66 1336.73 1572.54 1350.49 1557.57C1359.67 1547.58 1364.2 1535.58 1367.63 1523.68C1372.73 1506.03 1375.72 1487.47 1369.5 1470.04C1358.43 1439 1319.85 1412.9 1335.12 1386.21Z" fill="#59AB85"/>
<path d="M983.133 1682.98C995.087 1664.34 1007.29 1643.85 999.599 1624.18C997.015 1617.56 990.555 1610.57 980.638 1610.03C971.779 1609.56 964.393 1614.4 958.499 1618.98C944.647 1629.75 932.54 1656.98 932.54 1656.98C932.54 1656.98 925.083 1686.21 926.547 1694.35C928.765 1706.68 935.158 1705.39 926.547 1716.31C917.937 1727.23 907.875 1737.92 904.209 1750.08C900.542 1762.25 905.033 1776.64 920.229 1783.33C931.531 1788.31 946.671 1787.95 958.73 1783.9C970.788 1779.85 980.035 1772.58 986.738 1764.57C994.327 1755.52 999.043 1745.33 1000.46 1734.92C1003.22 1714.79 993.813 1694.91 983.133 1682.98Z" fill="#59AB85"/>
<path d="M1180.51 1540.66C1180.51 1540.66 1191.29 1523.84 1188.11 1515.34C1184.92 1506.85 1169.17 1499.43 1155.56 1502.85C1149.52 1504.37 1145.24 1507.61 1142.01 1510.98C1130.61 1522.85 1129.45 1537.92 1138.98 1550.35C1143.55 1556.31 1150.57 1562.05 1150.32 1568.59C1150.1 1574.31 1144.33 1579.37 1139.24 1584.25C1128.32 1594.76 1119.64 1606.33 1117.48 1618.58C1115.33 1630.82 1120.29 1643.84 1133.96 1653.16C1138.02 1655.93 1143.15 1658.44 1149.31 1658.92C1156.38 1659.46 1163.17 1657.22 1169.02 1654.81C1205.73 1639.67 1229.33 1610.59 1212.44 1586.16C1206.37 1577.37 1195.8 1569.97 1187.19 1561.95C1178.57 1553.94 1180.51 1540.66 1180.51 1540.66Z" fill="#59AB85"/>
<path d="M1474 1527C1424.72 1538.93 1310.81 1587.12 1249.4 1684.41C1172.64 1806.01 1135.5 2175 611 2337" stroke="#F8EED5" stroke-width="15"/>
</g>
<defs>
<clipPath id="clip0">
<rect width="1440" height="3500" fill="white"/>
</clipPath>
</defs>
</svg>
