<svg width="1440" height="3500" viewBox="0 0 1440 3500" fill="none" xmlns="http://www.w3.org/2000/svg">
<g clip-path="url(#clip0)">
<path d="M-49.9645 1913.03C79.1239 1845.07 227.088 1883.16 357.882 1945.5C488.676 2007.83 614.331 2093.92 751.96 2123.03C888.517 2151.93 1037.59 2125.57 1157.6 2214.24C1237.08 2272.98 1291.53 2374.28 1363.18 2447.83C1427.24 2513.6 1503.63 2555.79 1579 2597.2C1544.89 2621.29 1505.29 2627.9 1467.33 2638.84C1339.26 2675.76 1224.44 2764.55 1112.17 2852C1092.17 2794.13 1030.41 2793.23 983.807 2772.83C939.794 2753.56 904.658 2711.28 865.905 2678.23C749.398 2578.89 582.195 2958.45 453.5 2815C366.383 2796.04 344.084 2823.9 256 2815C167.916 2806.1 7.97476 2802.01 -71.3813 2852C-70.9577 2815.36 -51.1775 2458.13 -50.6886 2421.49C-49.5764 2337.99 -64.3239 2255.65 -71.3813 2172.63C-78.4388 2089.62 -77.0635 2001.64 -49.9645 1913.03Z" fill="#97D0A7"/>
<path fill-rule="evenodd" clip-rule="evenodd" d="M144.306 1946.73C75.335 1919.13 8.74774 1902.92 -32.2736 1896.37V1932C4.52667 1937.87 57.3412 1976.56 122.014 2002.44C187.031 2028.46 251.769 2064.34 296.024 2110.53C322.481 2138.15 339.722 2169.52 361.059 2208.35C361.561 2209.27 362.066 2210.19 362.573 2211.11C384.322 2250.68 409.621 2295.91 451.72 2343.87C536.196 2440.1 592.53 2585.79 908.5 2691L1019.48 2591.54C708.684 2488.05 571.495 2389.36 496.811 2304.29C459.33 2261.59 436.646 2221.31 415.153 2182.21C414.206 2180.48 413.259 2178.76 412.312 2177.03C392.048 2140.11 371.384 2102.46 339.35 2069.02C286.627 2013.99 212.932 1974.19 144.306 1946.73Z" fill="#F8EED5"/>
<path d="M-46.6602 2350.19C-90.5412 2339.68 -161.98 2372.02 -192.214 2389.51L-264.5 2984L854.491 2721.11C866.693 2697.07 874.194 2630.11 806.581 2554.57C738.968 2479.02 668.199 2496.69 641.266 2514.97C654.648 2499.45 652.158 2461.42 535.142 2433.39C418.126 2405.36 331.127 2421.96 302.255 2433.76C271.074 2401.39 189.589 2335.78 113.093 2332.3C36.5965 2328.81 61.5346 2413.03 83.5657 2455.57C58.4408 2424.82 -2.77924 2360.7 -46.6602 2350.19Z" fill="#49A383"/>
<path d="M1389.33 2412C934.72 2412 832.888 2623.1 -156 2744.19L-74 3301.5C-77.043 3264.49 1627.5 3580.51 1624.45 3543.5C1617.32 3456.74 1572 2569.13 1632.08 2485.43L1632.3 2485.12C1635.95 2480.04 1639.75 2474.76 1637.13 2469.59C1635.23 2465.83 1630.06 2462.44 1624.45 2459.28C1573.12 2430.29 1480.52 2415.07 1389.33 2412Z" fill="#56B492"/>
<path d="M904.5 2725.84C905.958 2725.84 906.688 2726.57 906.688 2728.03C906.792 2728.45 906.844 2728.75 906.844 2728.94L906.875 2729.47V2729.75L906.844 2729.88C906.844 2732.23 905.906 2733.41 904.031 2733.41L903.25 2733.5H902.438L902.312 2733.47H902.031C901.865 2733.43 901.74 2733.41 901.656 2733.41C900.01 2733.41 899.188 2732.36 899.188 2730.28V2729.09C899.25 2728.78 899.281 2728.43 899.281 2728.03C899.281 2727.64 899.49 2727.18 899.906 2726.66C900.344 2726.14 900.958 2725.88 901.75 2725.88C902 2725.81 902.167 2725.78 902.25 2725.78L903.062 2725.72H903.344L903.469 2725.75L904.25 2725.81C904.333 2725.83 904.417 2725.84 904.5 2725.84ZM920.75 2725.84C922.208 2725.84 922.938 2726.57 922.938 2728.03C923.042 2728.45 923.094 2728.75 923.094 2728.94L923.125 2729.47V2729.75L923.094 2729.88C923.094 2732.23 922.156 2733.41 920.281 2733.41L919.5 2733.5H918.688L918.562 2733.47H918.281C918.115 2733.43 917.99 2733.41 917.906 2733.41C916.26 2733.41 915.438 2732.36 915.438 2730.28V2729.09C915.5 2728.78 915.531 2728.43 915.531 2728.03C915.531 2727.64 915.74 2727.18 916.156 2726.66C916.594 2726.14 917.208 2725.88 918 2725.88C918.25 2725.81 918.417 2725.78 918.5 2725.78L919.312 2725.72H919.594L919.719 2725.75L920.5 2725.81C920.583 2725.83 920.667 2725.84 920.75 2725.84ZM937 2725.84C938.458 2725.84 939.188 2726.57 939.188 2728.03C939.292 2728.45 939.344 2728.75 939.344 2728.94L939.375 2729.47V2729.75L939.344 2729.88C939.344 2732.23 938.406 2733.41 936.531 2733.41L935.75 2733.5H934.938L934.812 2733.47H934.531C934.365 2733.43 934.24 2733.41 934.156 2733.41C932.51 2733.41 931.688 2732.36 931.688 2730.28V2729.09C931.75 2728.78 931.781 2728.43 931.781 2728.03C931.781 2727.64 931.99 2727.18 932.406 2726.66C932.844 2726.14 933.458 2725.88 934.25 2725.88C934.5 2725.81 934.667 2725.78 934.75 2725.78L935.562 2725.72H935.844L935.969 2725.75L936.75 2725.81C936.833 2725.83 936.917 2725.84 937 2725.84ZM952.719 2724.41C952.719 2725.74 953.365 2726.85 954.656 2727.75C955.51 2728.35 956.719 2728.66 958.281 2728.66H958.469C958.844 2728.59 959.24 2728.56 959.656 2728.56C961.052 2728.56 962.302 2727.94 963.406 2726.69C964.531 2725.44 965.094 2724.24 965.094 2723.09L965.156 2722.72L965.25 2721.06V2719.44C965.25 2718.67 964.99 2718.15 964.469 2717.88C963.969 2717.58 963 2717.44 961.562 2717.44H961.125L960.906 2717.47H960.5L959.188 2717.56C958.75 2717.62 958.396 2717.66 958.125 2717.66C956.625 2717.66 955.333 2718.12 954.25 2719.06C953.188 2720 952.656 2721.25 952.656 2722.81V2723.72C952.698 2724.05 952.719 2724.28 952.719 2724.41ZM950.5 2707.38C949.125 2707.38 948.438 2706.62 948.438 2705.12C948.438 2704.08 949.156 2703.21 950.594 2702.5C952.885 2701.35 955.333 2700.78 957.938 2700.78H959.438C961.521 2700.78 963.469 2701.16 965.281 2701.91C967.115 2702.66 968.521 2703.81 969.5 2705.38C970.75 2707.35 971.375 2711.74 971.375 2718.53C971.375 2722.11 971.5 2724.76 971.75 2726.47C972.021 2728.18 972.156 2729.43 972.156 2730.22C972.156 2731.78 971.156 2732.56 969.156 2732.56C968.26 2732.56 967.427 2732.29 966.656 2731.75C965.885 2731.21 965.271 2730.94 964.812 2730.94C964.354 2730.94 963.135 2731.33 961.156 2732.12C959.177 2732.92 957.188 2733.31 955.188 2733.31C952.375 2733.31 950.167 2732.43 948.562 2730.66C946.979 2728.89 946.188 2726.71 946.188 2724.12V2723.41C946.188 2720.24 947.562 2717.79 950.312 2716.06C952.104 2714.94 954.865 2714.17 958.594 2713.75C962.344 2713.33 964.323 2713 964.531 2712.75C964.802 2712.44 964.938 2711.91 964.938 2711.16C964.938 2710.93 964.927 2710.69 964.906 2710.44C964.635 2707.48 962.552 2705.99 958.656 2705.97C957.219 2705.97 955.646 2706.21 953.938 2706.69C952.229 2707.15 951.083 2707.38 950.5 2707.38ZM1002.5 2686.81H1003.53C1004.53 2686.81 1005.21 2687.02 1005.56 2687.44C1005.92 2687.85 1006.15 2688.38 1006.25 2689C1006.35 2689.62 1006.41 2691.02 1006.41 2693.19L1006.25 2699.75V2700.84L1006.19 2702.5V2703.59L1006.03 2710.25V2711.34L1006 2712.44C1006 2716.71 1006.04 2719.36 1006.12 2720.41C1006.23 2721.43 1006.56 2723.24 1007.12 2725.84C1007.69 2728.45 1007.97 2729.76 1007.97 2729.78C1007.97 2730.95 1007.72 2731.77 1007.22 2732.25C1006.74 2732.71 1005.86 2732.94 1004.59 2732.94H1004.06C1002.69 2732.94 1001.68 2732.46 1001.03 2731.5C1000.07 2730.1 999.594 2728.11 999.594 2725.53V2723.53L999.625 2723L999.688 2720.97L999.719 2720.44C999.719 2720.08 999.719 2719.73 999.719 2719.38L999.781 2717.19V2716.09L999.844 2713.31V2712.22L999.938 2708.88V2707.78L1000.03 2703.91C1000.03 2703.53 1000.03 2703.16 1000.03 2702.78L1000.09 2700.59V2699.5L1000.16 2696.75V2694.59L1000 2690.53C1000 2689.22 1000.19 2688.27 1000.56 2687.69C1000.94 2687.1 1001.58 2686.81 1002.5 2686.81ZM1023.91 2692.97C1023.91 2695.14 1022.68 2696.22 1020.22 2696.22H1019.97L1019.84 2696.19L1018.91 2696.09C1018.82 2696.07 1018.75 2696.06 1018.69 2696.06C1017.33 2696.06 1016.66 2695.14 1016.66 2693.28V2692.69C1016.66 2691.54 1016.92 2690.71 1017.44 2690.19C1017.96 2689.67 1018.6 2689.41 1019.38 2689.41L1020.09 2689.31H1020.81L1021.88 2689.47C1023.17 2689.47 1023.81 2690.2 1023.81 2691.66L1023.91 2692.38V2692.97ZM1022.88 2718.59L1024.19 2728.19V2728.88L1024.16 2729.19C1024.16 2730.54 1023.88 2731.5 1023.31 2732.06C1022.75 2732.62 1021.66 2732.91 1020.03 2732.91H1019.66C1018.2 2732.91 1017.27 2732.11 1016.88 2730.53C1016.67 2729.72 1016.56 2726.58 1016.56 2721.12V2707.75L1016.41 2705.66V2704.97C1016.41 2703.95 1016.59 2703.24 1016.97 2702.84C1017.34 2702.45 1017.94 2702.25 1018.75 2702.25H1019.81C1021.29 2702.25 1022.2 2702.78 1022.53 2703.84C1022.68 2704.3 1022.75 2706.01 1022.75 2708.97V2715.72L1022.84 2717.59C1022.86 2717.84 1022.88 2718.18 1022.88 2718.59ZM1036.91 2729.5C1035.45 2727.29 1034.72 2723.69 1034.72 2718.69C1034.72 2713.69 1034.42 2710.28 1033.81 2708.47C1033.56 2707.72 1033.06 2707.05 1032.31 2706.47C1031.58 2705.89 1031.22 2705.1 1031.22 2704.12C1031.22 2703.15 1031.61 2702.35 1032.41 2701.75C1032.57 2701.62 1032.97 2701.39 1033.59 2701.03C1034.22 2700.66 1034.64 2700.31 1034.84 2700C1035.05 2699.71 1035.27 2698.71 1035.5 2697C1036 2693.58 1036.92 2691.88 1038.25 2691.88H1038.72C1039.78 2691.88 1040.53 2692.3 1040.97 2693.16C1041.2 2693.57 1041.43 2694.68 1041.66 2696.47C1041.91 2698.26 1042.24 2699.44 1042.66 2700C1043.07 2700.54 1044.14 2701.11 1045.84 2701.72C1047.55 2702.32 1048.41 2703.06 1048.41 2703.94C1048.41 2704.79 1047.71 2705.44 1046.31 2705.88C1044.23 2706.52 1042.98 2707.25 1042.56 2708.06C1041.58 2709.96 1041.09 2713.78 1041.09 2719.53C1041.09 2722.2 1041.4 2724.03 1042 2725.03C1042.6 2726.01 1043.45 2726.71 1044.53 2727.12C1044.64 2727.17 1045.06 2727.3 1045.81 2727.53C1046.58 2727.74 1047.2 2728.02 1047.66 2728.38C1048.11 2728.71 1048.34 2729.27 1048.34 2730.06C1048.34 2730.83 1047.97 2731.48 1047.22 2732C1046.43 2732.52 1045.32 2732.78 1043.91 2732.78C1040.72 2732.78 1038.39 2731.69 1036.91 2729.5ZM1060.16 2729.5C1058.7 2727.29 1057.97 2723.69 1057.97 2718.69C1057.97 2713.69 1057.67 2710.28 1057.06 2708.47C1056.81 2707.72 1056.31 2707.05 1055.56 2706.47C1054.83 2705.89 1054.47 2705.1 1054.47 2704.12C1054.47 2703.15 1054.86 2702.35 1055.66 2701.75C1055.82 2701.62 1056.22 2701.39 1056.84 2701.03C1057.47 2700.66 1057.89 2700.31 1058.09 2700C1058.3 2699.71 1058.52 2698.71 1058.75 2697C1059.25 2693.58 1060.17 2691.88 1061.5 2691.88H1061.97C1063.03 2691.88 1063.78 2692.3 1064.22 2693.16C1064.45 2693.57 1064.68 2694.68 1064.91 2696.47C1065.16 2698.26 1065.49 2699.44 1065.91 2700C1066.32 2700.54 1067.39 2701.11 1069.09 2701.72C1070.8 2702.32 1071.66 2703.06 1071.66 2703.94C1071.66 2704.79 1070.96 2705.44 1069.56 2705.88C1067.48 2706.52 1066.23 2707.25 1065.81 2708.06C1064.83 2709.96 1064.34 2713.78 1064.34 2719.53C1064.34 2722.2 1064.65 2724.03 1065.25 2725.03C1065.85 2726.01 1066.7 2726.71 1067.78 2727.12C1067.89 2727.17 1068.31 2727.3 1069.06 2727.53C1069.83 2727.74 1070.45 2728.02 1070.91 2728.38C1071.36 2728.71 1071.59 2729.27 1071.59 2730.06C1071.59 2730.83 1071.22 2731.48 1070.47 2732C1069.68 2732.52 1068.57 2732.78 1067.16 2732.78C1063.97 2732.78 1061.64 2731.69 1060.16 2729.5ZM1082.62 2686.81H1083.66C1084.66 2686.81 1085.33 2687.02 1085.69 2687.44C1086.04 2687.85 1086.27 2688.38 1086.38 2689C1086.48 2689.62 1086.53 2691.02 1086.53 2693.19L1086.38 2699.75V2700.84L1086.31 2702.5V2703.59L1086.16 2710.25V2711.34L1086.12 2712.44C1086.12 2716.71 1086.17 2719.36 1086.25 2720.41C1086.35 2721.43 1086.69 2723.24 1087.25 2725.84C1087.81 2728.45 1088.09 2729.76 1088.09 2729.78C1088.09 2730.95 1087.84 2731.77 1087.34 2732.25C1086.86 2732.71 1085.99 2732.94 1084.72 2732.94H1084.19C1082.81 2732.94 1081.8 2732.46 1081.16 2731.5C1080.2 2730.1 1079.72 2728.11 1079.72 2725.53V2723.53L1079.75 2723L1079.81 2720.97L1079.84 2720.44C1079.84 2720.08 1079.84 2719.73 1079.84 2719.38L1079.91 2717.19V2716.09L1079.97 2713.31V2712.22L1080.06 2708.88V2707.78L1080.16 2703.91C1080.16 2703.53 1080.16 2703.16 1080.16 2702.78L1080.22 2700.59V2699.5L1080.28 2696.75V2694.59L1080.12 2690.53C1080.12 2689.22 1080.31 2688.27 1080.69 2687.69C1081.06 2687.1 1081.71 2686.81 1082.62 2686.81ZM1110.12 2714.62C1111.46 2714.62 1112.6 2714.32 1113.56 2713.72C1114.08 2713.39 1114.34 2712.72 1114.34 2711.72V2711.53C1114.34 2710.03 1113.89 2708.77 1112.97 2707.75C1112.05 2706.71 1110.75 2706.19 1109.06 2706.19H1108.69C1106.79 2706.19 1105.04 2706.9 1103.44 2708.31C1101.85 2709.73 1101.06 2711.52 1101.06 2713.69V2714.22C1101.06 2714.86 1101.55 2715.19 1102.53 2715.19L1102.84 2715.25H1103.97L1104.16 2715.22L1105.88 2715.09L1106.09 2715.06L1107.25 2714.97C1107.4 2714.95 1107.56 2714.93 1107.75 2714.91C1107.94 2714.89 1108.31 2714.83 1108.88 2714.75C1109.46 2714.67 1109.88 2714.62 1110.12 2714.62ZM1108.47 2733.34H1107.75C1105.65 2733.32 1103.73 2732.94 1102 2732.19C1098.69 2730.73 1096.45 2728.23 1095.28 2724.69C1094.64 2722.71 1094.31 2720.71 1094.31 2718.69V2717.28C1094.33 2715.18 1094.74 2713.08 1095.53 2711C1097.16 2706.79 1099.83 2704 1103.56 2702.62C1105.31 2702 1107.1 2701.69 1108.94 2701.69H1109.62C1112.58 2701.69 1115.04 2702.6 1117 2704.44C1118.96 2706.25 1119.94 2708.73 1119.94 2711.88V2712.5C1119.94 2714.71 1119.23 2716.26 1117.81 2717.16C1116.73 2717.84 1114.24 2718.47 1110.34 2719.03C1106.47 2719.59 1104.15 2720 1103.38 2720.25C1102.12 2720.65 1101.5 2721.22 1101.5 2721.97C1101.5 2723.86 1102.45 2725.45 1104.34 2726.72C1105.45 2727.45 1107.17 2727.81 1109.5 2727.81C1110.46 2727.81 1111.95 2727.53 1113.97 2726.97C1116.01 2726.39 1117.29 2726.09 1117.81 2726.09C1119.04 2726.09 1119.66 2726.72 1119.66 2727.97C1119.66 2729.22 1118.46 2730.43 1116.06 2731.59C1113.69 2732.76 1111.16 2733.34 1108.47 2733.34ZM1166.88 2715.03L1166.81 2713.34C1166.81 2711.09 1166.21 2709.22 1165 2707.72C1163.81 2706.22 1162.48 2705.47 1161 2705.47H1160.38L1160.09 2705.5C1157.64 2705.5 1155.77 2706.46 1154.5 2708.38C1153.52 2709.85 1153.03 2711.91 1153.03 2714.53C1152.97 2715.16 1152.94 2715.58 1152.94 2715.81L1152.88 2717.44V2719.06C1152.88 2722.54 1153.3 2724.93 1154.16 2726.22C1155.03 2727.51 1156.54 2728.16 1158.69 2728.16H1158.97C1161.36 2728.16 1163.28 2727.18 1164.72 2725.22C1166.18 2723.24 1166.91 2720.3 1166.91 2716.41V2715.34L1166.88 2715.03ZM1146.94 2725.25V2719.59L1146.97 2718.88V2717.47L1147 2716.03V2714.62L1147.06 2712.5V2708.19L1147.19 2703.22C1147.21 2702.74 1147.22 2702.25 1147.22 2701.75L1147.28 2698.16V2696.75C1147.28 2692.5 1147.35 2690.04 1147.5 2689.38C1147.73 2688.29 1148.34 2687.75 1149.34 2687.75H1149.94C1151.48 2687.75 1152.47 2688.29 1152.91 2689.38C1153.34 2690.44 1153.56 2692.62 1153.56 2695.94C1153.56 2699.23 1153.64 2701.25 1153.78 2702C1153.95 2702.73 1154.35 2703.09 1155 2703.09C1155.08 2703.09 1155.53 2702.98 1156.34 2702.75L1157.97 2702.34C1159.22 2702.03 1160.53 2701.88 1161.91 2701.88C1163.3 2701.88 1164.69 2702.17 1166.06 2702.75C1168.77 2703.92 1170.78 2706.29 1172.09 2709.88C1172.95 2712.21 1173.38 2714.49 1173.38 2716.72V2718.91C1173.38 2720.51 1173.05 2722.27 1172.41 2724.19C1171.18 2727.79 1168.85 2730.33 1165.44 2731.81C1163.96 2732.44 1162.41 2732.75 1160.78 2732.75H1159.44C1158.56 2732.75 1157.36 2732.54 1155.84 2732.12C1154.32 2731.71 1153.34 2731.5 1152.91 2731.5L1150.56 2731.66C1149.23 2731.66 1148.29 2731.21 1147.75 2730.31C1147.21 2729.42 1146.94 2727.73 1146.94 2725.25ZM1185.56 2717.19V2718.91C1185.56 2722.01 1186.2 2724.44 1187.47 2726.19C1188.76 2727.92 1190.48 2728.78 1192.62 2728.78L1192.94 2728.75C1195.21 2728.75 1197 2727.77 1198.31 2725.81C1199.62 2723.83 1200.28 2721.02 1200.28 2717.38V2716C1200.28 2713.17 1199.72 2710.81 1198.59 2708.94C1197.47 2707.06 1195.9 2706.12 1193.88 2706.12H1192.97C1190.8 2706.12 1189.02 2707.14 1187.62 2709.16C1186.25 2711.18 1185.56 2713.85 1185.56 2717.19ZM1206.94 2716.66V2717.66C1206.94 2722.41 1205.65 2726.25 1203.06 2729.19C1201.83 2730.6 1200.26 2731.68 1198.34 2732.41C1196.43 2733.14 1194.5 2733.5 1192.56 2733.5H1191.53C1187.84 2733.5 1184.83 2732.01 1182.5 2729.03C1180.62 2726.64 1179.69 2723.27 1179.69 2718.94V2717.38C1179.73 2716.71 1179.75 2715.83 1179.75 2714.75C1179.75 2713.73 1180.07 2712.29 1180.72 2710.44C1181.99 2706.75 1184.18 2704.22 1187.28 2702.84C1189.16 2702.01 1190.99 2701.59 1192.78 2701.59H1193.78C1197.93 2701.59 1201.27 2703.07 1203.81 2706.03C1205.9 2708.45 1206.94 2711.99 1206.94 2716.66ZM1215.81 2703.5C1216.96 2703.5 1217.93 2704.36 1218.72 2706.09C1219.53 2707.82 1220.52 2711.11 1221.69 2715.97C1222.85 2720.82 1224.04 2723.84 1225.25 2725.03C1226.4 2725.03 1227.68 2723.32 1229.09 2719.91C1229.89 2718.01 1230.73 2715.14 1231.62 2711.28C1232.52 2707.43 1233.25 2704.98 1233.81 2703.94C1234.38 2702.88 1235.18 2702.34 1236.22 2702.34H1236.91C1238.22 2702.34 1238.88 2703.04 1238.88 2704.44C1238.88 2705.12 1237.95 2709.58 1236.09 2717.81C1234.26 2726.04 1232.52 2731.83 1230.88 2735.19C1229.23 2738.54 1227.27 2741.14 1225 2742.97C1222.75 2744.8 1220.73 2745.72 1218.94 2745.72H1218.47C1217.09 2745.72 1216.41 2745.27 1216.41 2744.38C1216.41 2743.67 1217.4 2742.68 1219.38 2741.41C1221.38 2740.14 1222.55 2739.28 1222.91 2738.84C1224.18 2737.28 1224.81 2735.65 1224.81 2733.94C1224.81 2733.06 1223.8 2731.1 1221.78 2728.06C1219.78 2725 1218.21 2722.05 1217.06 2719.22C1214.27 2712.3 1212.88 2707.74 1212.88 2705.53C1212.88 2704.18 1213.85 2703.5 1215.81 2703.5ZM1249.44 2725.84C1250.9 2725.84 1251.62 2726.57 1251.62 2728.03C1251.73 2728.45 1251.78 2728.75 1251.78 2728.94L1251.81 2729.47V2729.75L1251.78 2729.88C1251.78 2732.23 1250.84 2733.41 1248.97 2733.41L1248.19 2733.5H1247.38L1247.25 2733.47H1246.97C1246.8 2733.43 1246.68 2733.41 1246.59 2733.41C1244.95 2733.41 1244.12 2732.36 1244.12 2730.28V2729.09C1244.19 2728.78 1244.22 2728.43 1244.22 2728.03C1244.22 2727.64 1244.43 2727.18 1244.84 2726.66C1245.28 2726.14 1245.9 2725.88 1246.69 2725.88C1246.94 2725.81 1247.1 2725.78 1247.19 2725.78L1248 2725.72H1248.28L1248.41 2725.75L1249.19 2725.81C1249.27 2725.83 1249.35 2725.84 1249.44 2725.84Z" fill="#F1F1F1"/>
</g>
<defs>
<clipPath id="clip0">
<rect width="1440" height="3500" fill="white"/>
</clipPath>
</defs>
</svg>
