<svg width="1440" height="3500" viewBox="0 0 1440 3500" fill="none" xmlns="http://www.w3.org/2000/svg">
<g clip-path="url(#clip0)">
<path d="M1516 -38.4839C1311.51 -26.8077 1106.92 -26.9254 902.327 -27.0431C815.208 -27.0943 728.089 -27.1455 640.969 -27.1941C421.411 -27.322 201.854 -27.45 -17.7028 -27.5779C-16.4778 402.169 -16.2276 831.925 -22.0869 1261.09C42.9222 1235 110.97 1233.57 176.3 1256.93C220.534 1272.75 263.282 1299.66 305.47 1328.3C320.013 1338.18 334.511 1348.26 349.008 1358.35C367.544 1371.25 386.081 1384.15 404.62 1397.03C465.161 1439.11 526.379 1481.38 590.661 1497.68C656.901 1514.47 725.215 1503.34 787.171 1527.15C813.268 1512.49 839.509 1497.72 863.874 1475.43C889.105 1452.34 911.874 1421.61 935.866 1394.6C1026.61 1292.44 1133.1 1245.39 1238.75 1213.63C1326.13 1187.36 1417.45 1170.94 1502 1218.41" fill="#3CBEBA"/>
<path d="M-727 1183.05C-526.465 1002.46 -201.598 481.93 215.427 316.882C330.265 271.431 445.888 247.929 560.95 227.923C687.667 205.891 814.599 187.928 938.86 192.892C1414.63 211.899 1834.97 588.934 2038.11 1178.89C2038.11 1178.89 2001.09 1184.41 1979.43 1191.75C1832.01 1110.77 1655.44 1149.16 1486.59 1188.43C1389.94 1210.9 1293.01 1233.46 1196.81 1272.9C1141.03 1295.76 1085.27 1324.49 1032.71 1366.88C1041.9 1343.52 1032.27 1318.85 1022.19 1301.52C941.237 1162.31 817.815 1081.13 683.564 1078.76C549.312 1076.4 405.573 1152.88 289.194 1288.61C294.648 1290.44 300.102 1292.28 305.555 1294.11" fill="#71C2BB"/>
<path d="M-727 1654.05C-526.465 1473.46 -201.598 952.93 215.427 787.882C330.265 742.431 445.888 718.929 560.95 698.923C687.667 676.891 814.599 658.928 938.86 663.892C1414.63 682.899 1834.97 1059.93 2038.11 1649.89C2038.11 1649.89 2001.09 1655.41 1979.43 1662.75C1832.01 1581.77 1655.44 1620.16 1486.59 1659.43C1389.94 1681.9 1293.01 1704.46 1196.81 1743.9C1141.03 1766.76 1085.27 1795.49 1032.71 1837.88C1041.9 1814.52 1032.27 1789.85 1022.19 1772.52C941.237 1633.31 817.815 1552.13 683.564 1549.76C549.312 1547.4 405.573 1623.88 289.194 1759.61C294.648 1761.44 300.102 1763.28 305.555 1765.11" fill="#BBC8BE"/>
<path d="M-185 2126C-68.0554 1991.87 -44.5 1501.54 230.911 1349.12C306.753 1307.15 386.52 1278.27 466.417 1251.57C554.407 1222.15 643.176 1195.16 733.528 1182.29C1079.47 1133.01 1529.24 1536.54 1766 1865.22C1647.32 1835.36 1569.5 2016 1569.5 2016C1569.5 2016 1044.21 1829.24 980.886 1865.22C944.169 1886.08 1012.29 1843.77 980.886 1875.95C983.939 1860.74 973.215 1847.14 963.293 1838.01C883.622 1764.67 782.208 1731.62 685.052 1747.33C587.895 1763.04 501.135 1964.57 438 2061C433.787 2060.59 442.213 2061.41 438 2061" fill="#FFCFBF"/>
<path d="M353.365 1714.79C167.362 1837.32 81.9801 1999.98 3 2107.81C68.6162 2095.18 729 2089 729 2089C729 2089 1362.34 1940.99 1442.5 1965C1282.6 1700.77 926.447 1541.04 692.813 1580.66C631.793 1591.01 571.842 1612.71 512.416 1636.36C458.456 1657.83 404.585 1681.04 353.365 1714.79Z" fill="#FEDACA"/>
<path d="M793.808 1697.78C835.877 1712.61 895 1744.86 903 1789.93C911 1835 864 2031.8 708 2041C552 2050.2 507.5 1907.5 523 1822.68C538.5 1737.85 696.204 1663.38 793.808 1697.78Z" fill="#FCD697"/>
<path d="M22.0155 270.937C-56.8306 239.008 -154.377 245.321 -257.255 289.01C-275.057 296.57 -293.321 305.307 -309.609 306.313C-325.896 307.32 -340.241 299.092 -342.517 278.891C-346.197 246.213 -318.059 199.687 -290.361 170.276C-250.907 128.382 -206.223 102.358 -168.449 99.2728C-138.607 96.8362 -112.091 107.837 -79.3969 91.6977C-57.5615 80.9181 -35.5347 59.1181 -13.5371 45.8033C8.46057 32.4885 33.298 30.4079 36.9559 54.2315C39.1043 68.2242 33.3137 87.7307 35.2489 101.903C37.7376 120.134 52.1112 125.064 66.164 126.699C80.2168 128.333 95.7839 128.465 103.61 141.106C111.434 153.75 106.019 184.875 89.6318 198.894C110.253 205.297 128.941 215.883 145.187 230.367C153.449 237.73 161.305 250.191 154.322 268.494C144.196 295.042 118.739 299.071 103.299 294.856C70.948 286.022 38.408 277.575 22.0155 270.937Z" fill="#F8EED5" fill-opacity="0.7"/>
<path d="M1049.86 1013.69C1024.99 1011.21 1022.98 1037.67 1024.3 1060.9C1005.79 1057.66 998.906 1059.14 984.31 1062.71C970.165 1066.18 957.66 1075.3 963.65 1093.35C967.294 1104.34 977.322 1116.28 988.353 1125.57C1026.72 1157.85 1067.9 1157.62 1100.45 1154.06C1139.16 1149.84 1177.88 1145.61 1216.59 1141.38C1226.17 1140.34 1235.88 1139.25 1243.03 1135.05C1253.59 1128.84 1257.94 1116.15 1269.76 1111.4C1281.35 1106.74 1298.5 1110.29 1314.35 1112.33C1330.2 1114.36 1346.42 1114.4 1352.45 1104.21C1358.47 1094.02 1347.89 1070.14 1330.27 1061.24C1324.55 1058.35 1319.16 1057.49 1313.96 1056.69C1287.79 1052.68 1261.62 1048.67 1235.45 1044.65C1229.09 1043.68 1222.26 1042.51 1215.37 1038.02C1202.68 1029.77 1196.35 1015.1 1186.35 1003.41C1170.65 985.068 1146.31 975.672 1130.48 977.498C1114.65 979.323 1105.43 989.712 1097.16 1000.2C1090.22 1009 1082.53 1018.45 1067.54 1016.95C1061.87 1016.39 1055.52 1014.26 1049.86 1013.69Z" fill="#F8EED5" fill-opacity="0.7"/>
<path d="M1571.7 358.258C1528.04 317.349 1481.19 277.152 1438.2 264.964C1395.22 252.776 1359.26 279.252 1370.74 334.648C1373.6 348.454 1378.92 365.502 1372.46 371.495C1369.51 374.233 1364.67 373.782 1360.04 373.275C1342.78 371.384 1325.53 369.494 1308.28 367.604C1292.53 365.88 1274.19 367.266 1276.03 387.559C1276.81 396.168 1281.31 406.097 1283.6 415.325C1291.67 447.738 1270.83 462.43 1247.41 459.973C1223.98 457.516 1197.02 443.826 1174.38 443.5C1171.41 443.457 1168.34 443.768 1167.14 446.517C1164.85 451.769 1170.34 461.939 1175.32 469.789C1193.69 498.801 1219.71 533.51 1239.89 531.877C1245.74 531.403 1249.92 527.658 1254.26 524.398C1288.08 498.981 1337.56 500.978 1385.64 503.342C1449.16 506.466 1512.69 509.589 1576.21 512.715C1588.16 513.303 1600.98 513.418 1606.09 502.874C1608.93 496.994 1608.97 488.429 1608.38 479.759C1605.95 444.092 1593.18 402.776 1571.7 358.258Z" fill="#F8EED5" fill-opacity="0.7"/>
<path d="M111.769 1079.11C132.299 1040.96 168.094 1008.64 200.929 998.614C219.692 992.884 236.956 994.008 255.67 988.574C317.214 970.704 386.921 885.326 440.296 893.276C455.813 895.585 467.804 908.726 463.746 929.537C461.339 941.884 453.617 956.647 456.982 965.8C458.629 970.28 462.683 972.259 466.585 974.073C486.029 983.11 505.473 992.148 524.918 1001.18C527.761 1002.5 530.74 1003.99 531.672 1007.47C533.768 1015.29 524.816 1027.04 516.78 1034.56C472.625 1075.86 422.218 1089.13 377.253 1095.05C332.288 1100.96 287.23 1102.2 239.537 1127.1C222.684 1135.9 205.477 1147.66 189.198 1151.26C160.458 1157.62 140.982 1137.25 112.23 1143.66C96.7149 1147.12 74.9194 1156.12 73.1556 1140.19C72.3343 1132.76 77.0861 1123.16 82.0423 1114.75C85.5002 1090.5 92.0002 1079.11 111.769 1079.11Z" fill="#F8EED5" fill-opacity="0.7"/>
<path d="M-106.831 1606.26C-63.1677 1565.35 -16.3173 1525.15 26.6669 1512.96C69.6511 1500.78 105.606 1527.25 94.1274 1582.65C91.2673 1596.45 85.947 1613.5 92.4081 1619.5C95.3601 1622.23 100.197 1621.78 104.83 1621.27C122.084 1619.38 139.339 1617.49 156.594 1615.6C172.343 1613.88 190.675 1615.27 188.838 1635.56C188.058 1644.17 183.563 1654.1 181.266 1663.33C173.196 1695.74 194.035 1710.43 217.462 1707.97C240.89 1705.52 267.848 1691.83 290.491 1691.5C293.463 1691.46 296.527 1691.77 297.727 1694.52C300.02 1699.77 294.525 1709.94 289.553 1717.79C271.181 1746.8 245.156 1781.51 224.977 1779.88C219.125 1779.4 214.949 1775.66 210.613 1772.4C176.79 1746.98 127.307 1748.98 79.2265 1751.34C15.7042 1754.47 -47.8182 1757.59 -111.342 1760.72C-123.292 1761.3 -136.114 1761.42 -141.217 1750.87C-144.063 1744.99 -144.105 1736.43 -143.513 1727.76C-141.08 1692.09 -128.308 1650.78 -106.831 1606.26Z" fill="#F8EED5" fill-opacity="0.7"/>
<path d="M250.775 257.797C247.357 252.621 245.648 244.174 245.648 232.455C245.648 220.736 244.94 212.753 243.524 208.505C242.938 206.747 241.767 205.185 240.009 203.817C238.3 202.45 237.445 200.619 237.445 198.324C237.445 196.029 238.373 194.174 240.229 192.758C240.619 192.465 241.547 191.903 243.012 191.073C244.477 190.194 245.453 189.389 245.941 188.656C246.43 187.973 246.942 185.629 247.479 181.625C248.651 173.617 250.8 169.613 253.925 169.613H255.023C257.514 169.613 259.271 170.614 260.297 172.616C260.834 173.593 261.371 176.181 261.908 180.38C262.494 184.579 263.275 187.338 264.252 188.656C265.229 189.926 267.719 191.269 271.723 192.685C275.727 194.101 277.729 195.834 277.729 197.885C277.729 199.887 276.093 201.4 272.821 202.426C267.938 203.939 265.009 205.648 264.032 207.553C261.737 211.996 260.59 220.956 260.59 234.433C260.59 240.683 261.298 244.979 262.714 247.323C264.13 249.618 266.107 251.254 268.646 252.23C268.891 252.328 269.892 252.646 271.649 253.183C273.456 253.671 274.896 254.33 275.971 255.16C277.045 255.941 277.582 257.26 277.582 259.115C277.582 260.922 276.703 262.436 274.945 263.656C273.09 264.877 270.502 265.487 267.182 265.487C259.711 265.487 254.242 262.924 250.775 257.797ZM302.704 159.359C306.952 159.359 309.613 160.897 310.688 163.974C311.273 165.634 311.566 171.493 311.566 181.552C311.566 191.562 312.494 196.566 314.35 196.566C314.984 196.566 315.863 196.396 316.986 196.054L318.524 195.541C319.989 195.053 321.454 194.613 322.919 194.223C324.433 193.832 327.533 193.637 332.221 193.637C341.596 193.637 348.114 198.422 351.776 207.992C354.657 215.316 356.098 231.039 356.098 255.16C356.098 258.725 355.561 260.995 354.486 261.972C353.412 262.948 351.874 263.437 349.872 263.437C346.845 263.437 344.843 261.166 343.866 256.625C343.476 254.867 342.963 247.812 342.328 235.458C341.742 223.056 340.839 215.463 339.618 212.68C337.567 207.846 334.003 205.429 328.925 205.429C321.991 205.429 317.182 208.358 314.496 214.218C312.934 217.489 311.762 225.155 310.98 237.216C310.199 249.228 309.662 255.819 309.369 256.991C308.148 261.776 305.731 264.169 302.118 264.169C299.97 264.169 298.383 263.681 297.357 262.704C296.332 261.728 295.819 259.994 295.819 257.504V253.109L295.893 250.766L296.112 239.193L296.259 230.038L296.405 225.424L296.625 211.581C296.674 210.019 296.698 208.48 296.698 206.967L296.918 193.271C296.918 177.841 297.187 168.344 297.724 164.779C298.31 161.166 299.97 159.359 302.704 159.359ZM408.759 222.934C411.884 222.934 414.569 222.226 416.815 220.81C418.036 220.028 418.646 218.466 418.646 216.122V215.683C418.646 212.167 417.572 209.213 415.424 206.82C413.275 204.379 410.224 203.158 406.269 203.158H405.39C400.946 203.158 396.845 204.818 393.085 208.139C389.374 211.459 387.519 215.658 387.519 220.736V221.981C387.519 223.495 388.666 224.252 390.961 224.252L391.693 224.398H394.33L394.77 224.325L398.798 224.032L399.311 223.959L402.021 223.739C402.362 223.69 402.753 223.642 403.192 223.593C403.632 223.544 404.511 223.422 405.829 223.227C407.196 223.031 408.173 222.934 408.759 222.934ZM404.877 266.806H403.192C398.261 266.757 393.769 265.854 389.716 264.096C381.952 260.678 376.703 254.818 373.969 246.518C372.455 241.879 371.698 237.191 371.698 232.455V229.159C371.747 224.228 372.699 219.32 374.555 214.438C378.363 204.574 384.638 198.031 393.378 194.809C397.479 193.344 401.679 192.611 405.976 192.611H407.587C414.521 192.611 420.282 194.76 424.872 199.057C429.462 203.305 431.757 209.115 431.757 216.488V217.953C431.757 223.129 430.097 226.767 426.776 228.866C424.237 230.478 418.402 231.942 409.271 233.261C400.189 234.579 394.745 235.531 392.938 236.117C390.009 237.045 388.544 238.388 388.544 240.146C388.544 244.589 390.766 248.3 395.209 251.278C397.797 252.987 401.825 253.842 407.294 253.842C409.54 253.842 413.031 253.183 417.768 251.864C422.553 250.497 425.556 249.813 426.776 249.813C429.657 249.813 431.098 251.278 431.098 254.208C431.098 257.138 428.29 259.97 422.675 262.704C417.108 265.438 411.176 266.806 404.877 266.806ZM537.885 223.739L537.738 220.15C537.738 215.463 536.713 211.898 534.662 209.457C532.611 207.016 529.73 205.795 526.02 205.795H523.31C520.917 205.795 518.451 206.503 515.912 207.919C513.422 209.335 511.42 211.166 509.906 213.412C506.928 217.904 505.438 224.472 505.438 233.114L505.512 233.847C505.512 240.536 506.537 245.59 508.588 249.008C511.322 253.598 514.911 255.893 519.354 255.893H521.332C526.264 255.893 530.219 254.135 533.197 250.619C536.176 247.104 537.665 241.61 537.665 234.14C537.763 233.163 537.812 232.431 537.812 231.942L537.958 228.207V224.472L537.885 223.739ZM493.207 229.892V225.937C493.207 221.786 493.964 217.538 495.478 213.192C497.04 208.798 498.896 205.331 501.044 202.792C505.829 197.128 512.812 194.296 521.991 194.296C525.458 194.296 529.218 194.955 533.271 196.273C537.323 197.592 540.766 198.251 543.598 198.251C548.139 198.251 550.897 199.984 551.874 203.451C552.899 206.918 553.412 217.855 553.412 236.264V246.444L553.559 252.157C553.656 254.647 553.705 255.917 553.705 255.966V265.707C553.705 276.156 550.897 284.457 545.282 290.609C542.401 293.734 538.69 296.103 534.149 297.714C529.657 299.374 525.189 300.204 520.746 300.204H518.695C514.008 300.204 509.467 299.35 505.072 297.641C500.727 295.932 498.554 293.759 498.554 291.122C498.554 288.095 500.922 286.581 505.658 286.581C506.146 286.581 507.514 286.703 509.76 286.947C512.006 287.191 514.569 287.313 517.45 287.313C523.407 287.313 528.363 285.531 532.318 281.967C536.322 278.451 538.324 273.812 538.324 268.051C538.324 265.268 537.494 263.876 535.834 263.876L525.727 264.901C510.688 264.901 500.727 258.285 495.844 245.053C494.086 240.17 493.207 235.116 493.207 229.892ZM593.256 172.177C593.256 177.255 590.375 179.794 584.613 179.794H584.027L583.734 179.721L581.537 179.501C581.342 179.452 581.171 179.428 581.024 179.428C577.851 179.428 576.264 177.255 576.264 172.909V171.518C576.264 168.832 576.874 166.879 578.095 165.658C579.315 164.438 580.829 163.827 582.636 163.827L584.32 163.607H586.005L588.495 163.974C591.522 163.974 593.036 165.683 593.036 169.101L593.256 170.785V172.177ZM590.839 232.235L593.915 254.721V256.332L593.842 257.064C593.842 260.238 593.183 262.484 591.864 263.803C590.546 265.121 587.982 265.78 584.174 265.78H583.295C579.877 265.78 577.704 263.925 576.776 260.214C576.288 258.31 576.044 250.961 576.044 238.168V206.82L575.678 201.913V200.302C575.678 197.909 576.117 196.249 576.996 195.321C577.875 194.394 579.267 193.93 581.171 193.93H583.661C587.128 193.93 589.252 195.175 590.033 197.665C590.375 198.739 590.546 202.743 590.546 209.677V225.497L590.766 229.892C590.814 230.478 590.839 231.259 590.839 232.235ZM607.831 196.713C607.831 195.004 609.271 194.149 612.152 194.149C615.082 194.149 617.377 194.735 619.037 195.907C620.746 197.079 622.382 199.35 623.944 202.719C625.556 206.088 628.29 214.584 632.147 228.207C636.054 241.781 638.69 248.568 640.058 248.568C641.181 248.568 644.159 241.342 648.993 226.889C653.827 212.387 657.172 203.305 659.027 199.643C660.883 195.932 663.52 194.076 666.938 194.076C670.355 194.076 672.064 195.15 672.064 197.299C672.064 198.178 669.672 205.99 664.887 220.736C660.102 235.434 655.414 247.494 650.824 256.918C649.066 260.58 647.382 262.924 645.771 263.949C644.159 264.975 642.035 265.487 639.398 265.487C636.762 265.487 634.76 264.95 633.393 263.876C632.074 262.802 629.975 259.14 627.094 252.89C624.213 246.64 620.282 235.849 615.302 220.517C610.321 205.185 607.831 197.25 607.831 196.713ZM704.877 172.177C704.877 177.255 701.996 179.794 696.234 179.794H695.648L695.355 179.721L693.158 179.501C692.963 179.452 692.792 179.428 692.646 179.428C689.472 179.428 687.885 177.255 687.885 172.909V171.518C687.885 168.832 688.495 166.879 689.716 165.658C690.937 164.438 692.45 163.827 694.257 163.827L695.941 163.607H697.626L700.116 163.974C703.144 163.974 704.657 165.683 704.657 169.101L704.877 170.785V172.177ZM702.46 232.235L705.536 254.721V256.332L705.463 257.064C705.463 260.238 704.804 262.484 703.485 263.803C702.167 265.121 699.604 265.78 695.795 265.78H694.916C691.498 265.78 689.325 263.925 688.397 260.214C687.909 258.31 687.665 250.961 687.665 238.168V206.82L687.299 201.913V200.302C687.299 197.909 687.738 196.249 688.617 195.321C689.496 194.394 690.888 193.93 692.792 193.93H695.282C698.749 193.93 700.873 195.175 701.654 197.665C701.996 198.739 702.167 202.743 702.167 209.677V225.497L702.387 229.892C702.436 230.478 702.46 231.259 702.46 232.235ZM726.923 203.085C727.46 199.179 728.974 197.226 731.464 197.226C733.954 197.226 736.225 198.056 738.275 199.716C740.326 201.376 741.645 202.206 742.23 202.206C742.816 202.206 744.403 201.498 746.991 200.082C749.628 198.617 751.264 197.738 751.898 197.445C755.854 195.688 759.833 194.809 763.837 194.809C771.259 194.809 776.752 197.274 780.316 202.206C783.93 207.138 785.736 216.073 785.736 229.013C785.736 231.649 786.078 237.143 786.762 245.492C787.494 253.793 787.86 258.065 787.86 258.31C787.86 261.483 786.029 263.07 782.367 263.07C778.705 263.07 776.264 261.044 775.043 256.991C773.871 252.938 772.821 245.248 771.894 233.92C771.015 222.543 770.014 215.536 768.891 212.899C766.791 207.919 762.958 205.429 757.392 205.429C754.608 205.429 751.947 206.234 749.408 207.846C746.918 209.457 744.94 211.825 743.476 214.95C742.06 218.075 740.888 225.473 739.96 237.143C739.081 248.812 738.373 255.648 737.836 257.65C737.299 259.652 736.444 261.19 735.272 262.265C734.149 263.29 732.562 263.803 730.512 263.803C728.51 263.803 727.094 263.339 726.264 262.411C725.482 261.435 725.092 259.384 725.092 256.259V254.428L725.165 252.523L725.385 243.002C725.385 241.732 725.385 240.463 725.385 239.193L725.531 233.48C725.531 220.248 725.995 210.116 726.923 203.085ZM850.189 223.739L850.043 220.15C850.043 215.463 849.018 211.898 846.967 209.457C844.916 207.016 842.035 205.795 838.324 205.795H835.614C833.222 205.795 830.756 206.503 828.217 207.919C825.727 209.335 823.725 211.166 822.211 213.412C819.232 217.904 817.743 224.472 817.743 233.114L817.816 233.847C817.816 240.536 818.842 245.59 820.893 249.008C823.627 253.598 827.216 255.893 831.659 255.893H833.637C838.568 255.893 842.523 254.135 845.502 250.619C848.48 247.104 849.97 241.61 849.97 234.14C850.067 233.163 850.116 232.431 850.116 231.942L850.263 228.207V224.472L850.189 223.739ZM805.512 229.892V225.937C805.512 221.786 806.269 217.538 807.782 213.192C809.345 208.798 811.2 205.331 813.349 202.792C818.134 197.128 825.116 194.296 834.296 194.296C837.763 194.296 841.522 194.955 845.575 196.273C849.628 197.592 853.07 198.251 855.902 198.251C860.443 198.251 863.202 199.984 864.179 203.451C865.204 206.918 865.717 217.855 865.717 236.264V246.444L865.863 252.157C865.961 254.647 866.01 255.917 866.01 255.966V265.707C866.01 276.156 863.202 284.457 857.587 290.609C854.706 293.734 850.995 296.103 846.454 297.714C841.962 299.374 837.494 300.204 833.051 300.204H831C826.312 300.204 821.771 299.35 817.377 297.641C813.031 295.932 810.858 293.759 810.858 291.122C810.858 288.095 813.227 286.581 817.963 286.581C818.451 286.581 819.818 286.703 822.064 286.947C824.311 287.191 826.874 287.313 829.755 287.313C835.712 287.313 840.668 285.531 844.623 281.967C848.627 278.451 850.629 273.812 850.629 268.051C850.629 265.268 849.799 263.876 848.139 263.876L838.031 264.901C822.992 264.901 813.031 258.285 808.148 245.053C806.391 240.17 805.512 235.116 805.512 229.892ZM940.57 257.797C937.152 252.621 935.443 244.174 935.443 232.455C935.443 220.736 934.735 212.753 933.319 208.505C932.733 206.747 931.562 205.185 929.804 203.817C928.095 202.45 927.24 200.619 927.24 198.324C927.24 196.029 928.168 194.174 930.023 192.758C930.414 192.465 931.342 191.903 932.807 191.073C934.271 190.194 935.248 189.389 935.736 188.656C936.225 187.973 936.737 185.629 937.274 181.625C938.446 173.617 940.595 169.613 943.72 169.613H944.818C947.309 169.613 949.066 170.614 950.092 172.616C950.629 173.593 951.166 176.181 951.703 180.38C952.289 184.579 953.07 187.338 954.047 188.656C955.023 189.926 957.514 191.269 961.518 192.685C965.521 194.101 967.523 195.834 967.523 197.885C967.523 199.887 965.888 201.4 962.616 202.426C957.733 203.939 954.804 205.648 953.827 207.553C951.532 211.996 950.385 220.956 950.385 234.433C950.385 240.683 951.093 244.979 952.509 247.323C953.925 249.618 955.902 251.254 958.441 252.23C958.686 252.328 959.687 252.646 961.444 253.183C963.251 253.671 964.691 254.33 965.766 255.16C966.84 255.941 967.377 257.26 967.377 259.115C967.377 260.922 966.498 262.436 964.74 263.656C962.885 264.877 960.297 265.487 956.977 265.487C949.506 265.487 944.037 262.924 940.57 257.797ZM985.614 206.088C985.614 202.719 986.029 200.229 986.859 198.617C987.689 196.957 989.228 196.127 991.474 196.127C993.72 196.127 996.308 196.933 999.237 198.544C1002.17 200.155 1003.8 200.961 1004.14 200.961C1004.54 200.961 1005.37 200.521 1006.63 199.643C1011.37 196.322 1015.57 194.662 1019.23 194.662H1021.28C1023.53 194.662 1025.41 195.272 1026.92 196.493C1028.49 197.714 1029.27 199.447 1029.27 201.693C1029.27 203.891 1028.29 205.502 1026.34 206.527C1025.51 206.967 1023.77 207.333 1021.14 207.626C1018.5 207.919 1015.91 208.554 1013.37 209.53C1010.88 210.507 1008.66 212.411 1006.71 215.243C1003.88 219.394 1002.46 227.475 1002.46 239.486L1002.17 247.689L1002.02 252.377C1002.02 256.723 1001.31 259.921 999.896 261.972C998.529 264.022 996.186 265.048 992.865 265.048H991.767C988.837 265.048 987.055 263.559 986.42 260.58C986.371 260.336 986.347 255.697 986.347 246.664V231.942L986.273 230.697V228.28L986.2 227.035C986.2 226.205 986.2 225.375 986.2 224.545L985.907 215.097L985.614 208.285V206.088ZM1075.7 222.934C1078.83 222.934 1081.51 222.226 1083.76 220.81C1084.98 220.028 1085.59 218.466 1085.59 216.122V215.683C1085.59 212.167 1084.52 209.213 1082.37 206.82C1080.22 204.379 1077.17 203.158 1073.21 203.158H1072.33C1067.89 203.158 1063.79 204.818 1060.03 208.139C1056.32 211.459 1054.46 215.658 1054.46 220.736V221.981C1054.46 223.495 1055.61 224.252 1057.9 224.252L1058.64 224.398H1061.27L1061.71 224.325L1065.74 224.032L1066.25 223.959L1068.96 223.739C1069.31 223.69 1069.7 223.642 1070.14 223.593C1070.58 223.544 1071.45 223.422 1072.77 223.227C1074.14 223.031 1075.12 222.934 1075.7 222.934ZM1071.82 266.806H1070.14C1065.2 266.757 1060.71 265.854 1056.66 264.096C1048.9 260.678 1043.65 254.818 1040.91 246.518C1039.4 241.879 1038.64 237.191 1038.64 232.455V229.159C1038.69 224.228 1039.64 219.32 1041.5 214.438C1045.31 204.574 1051.58 198.031 1060.32 194.809C1064.42 193.344 1068.62 192.611 1072.92 192.611H1074.53C1081.46 192.611 1087.23 194.76 1091.82 199.057C1096.41 203.305 1098.7 209.115 1098.7 216.488V217.953C1098.7 223.129 1097.04 226.767 1093.72 228.866C1091.18 230.478 1085.35 231.942 1076.21 233.261C1067.13 234.579 1061.69 235.531 1059.88 236.117C1056.95 237.045 1055.49 238.388 1055.49 240.146C1055.49 244.589 1057.71 248.3 1062.15 251.278C1064.74 252.987 1068.77 253.842 1074.24 253.842C1076.48 253.842 1079.97 253.183 1084.71 251.864C1089.5 250.497 1092.5 249.813 1093.72 249.813C1096.6 249.813 1098.04 251.278 1098.04 254.208C1098.04 257.138 1095.23 259.97 1089.62 262.704C1084.05 265.438 1078.12 266.806 1071.82 266.806ZM1150.41 222.934C1153.53 222.934 1156.22 222.226 1158.47 220.81C1159.69 220.028 1160.3 218.466 1160.3 216.122V215.683C1160.3 212.167 1159.22 209.213 1157.07 206.82C1154.93 204.379 1151.87 203.158 1147.92 203.158H1147.04C1142.6 203.158 1138.5 204.818 1134.74 208.139C1131.02 211.459 1129.17 215.658 1129.17 220.736V221.981C1129.17 223.495 1130.32 224.252 1132.61 224.252L1133.34 224.398H1135.98L1136.42 224.325L1140.45 224.032L1140.96 223.959L1143.67 223.739C1144.01 223.69 1144.4 223.642 1144.84 223.593C1145.28 223.544 1146.16 223.422 1147.48 223.227C1148.85 223.031 1149.82 222.934 1150.41 222.934ZM1146.53 266.806H1144.84C1139.91 266.757 1135.42 265.854 1131.37 264.096C1123.6 260.678 1118.35 254.818 1115.62 246.518C1114.11 241.879 1113.35 237.191 1113.35 232.455V229.159C1113.4 224.228 1114.35 219.32 1116.21 214.438C1120.01 204.574 1126.29 198.031 1135.03 194.809C1139.13 193.344 1143.33 192.611 1147.63 192.611H1149.24C1156.17 192.611 1161.93 194.76 1166.52 199.057C1171.11 203.305 1173.41 209.115 1173.41 216.488V217.953C1173.41 223.129 1171.75 226.767 1168.43 228.866C1165.89 230.478 1160.05 231.942 1150.92 233.261C1141.84 234.579 1136.4 235.531 1134.59 236.117C1131.66 237.045 1130.19 238.388 1130.19 240.146C1130.19 244.589 1132.42 248.3 1136.86 251.278C1139.45 252.987 1143.48 253.842 1148.94 253.842C1151.19 253.842 1154.68 253.183 1159.42 251.864C1164.2 250.497 1167.21 249.813 1168.43 249.813C1171.31 249.813 1172.75 251.278 1172.75 254.208C1172.75 257.138 1169.94 259.97 1164.33 262.704C1158.76 265.438 1152.83 266.806 1146.53 266.806Z" fill="#F1F1F1"/>
<path d="M616.253 344.286C616.253 345.328 616.757 346.199 617.767 346.898C618.434 347.37 619.378 347.606 620.599 347.606H620.745C621.038 347.558 621.347 347.533 621.673 347.533C622.763 347.533 623.74 347.045 624.603 346.068C625.481 345.092 625.921 344.156 625.921 343.261L625.97 342.968L626.043 341.674V340.404C626.043 339.802 625.84 339.395 625.433 339.184C625.042 338.956 624.285 338.842 623.162 338.842H622.82L622.649 338.866H622.332L621.307 338.939C620.965 338.988 620.688 339.013 620.477 339.013C619.305 339.013 618.296 339.379 617.449 340.111C616.619 340.844 616.204 341.82 616.204 343.041V343.749C616.237 344.009 616.253 344.188 616.253 344.286ZM614.52 330.98C613.445 330.98 612.908 330.395 612.908 329.223C612.908 328.409 613.47 327.725 614.593 327.172C616.383 326.277 618.296 325.829 620.33 325.829H621.502C623.13 325.829 624.651 326.122 626.067 326.708C627.5 327.294 628.598 328.197 629.363 329.418C630.34 330.964 630.828 334.39 630.828 339.696C630.828 342.496 630.926 344.563 631.121 345.897C631.333 347.232 631.438 348.209 631.438 348.827C631.438 350.048 630.657 350.658 629.095 350.658C628.395 350.658 627.744 350.447 627.142 350.023C626.539 349.6 626.059 349.389 625.701 349.389C625.343 349.389 624.391 349.698 622.845 350.316C621.299 350.935 619.744 351.244 618.182 351.244C615.984 351.244 614.259 350.552 613.006 349.169C611.769 347.785 611.15 346.085 611.15 344.066V343.505C611.15 341.031 612.225 339.118 614.373 337.768C615.773 336.889 617.929 336.286 620.843 335.961C623.772 335.635 625.319 335.375 625.481 335.18C625.693 334.936 625.799 334.521 625.799 333.935C625.799 333.756 625.791 333.568 625.774 333.373C625.563 331.062 623.935 329.898 620.892 329.882C619.769 329.882 618.54 330.069 617.205 330.443C615.87 330.801 614.975 330.98 614.52 330.98ZM652.605 331.029C652.605 329.906 652.744 329.076 653.021 328.539C653.297 327.986 653.81 327.709 654.559 327.709C655.307 327.709 656.17 327.978 657.146 328.515C658.123 329.052 658.668 329.32 658.782 329.32C658.912 329.32 659.189 329.174 659.612 328.881C661.191 327.774 662.591 327.221 663.812 327.221H664.495C665.244 327.221 665.87 327.424 666.375 327.831C666.896 328.238 667.156 328.816 667.156 329.564C667.156 330.297 666.831 330.834 666.18 331.176C665.903 331.322 665.325 331.444 664.446 331.542C663.567 331.64 662.705 331.851 661.858 332.177C661.028 332.502 660.288 333.137 659.637 334.081C658.693 335.465 658.221 338.158 658.221 342.162L658.123 344.896L658.074 346.459C658.074 347.908 657.838 348.974 657.366 349.657C656.91 350.341 656.129 350.683 655.022 350.683H654.656C653.68 350.683 653.086 350.186 652.874 349.193C652.858 349.112 652.85 347.566 652.85 344.555V339.647L652.825 339.232V338.427L652.801 338.012C652.801 337.735 652.801 337.458 652.801 337.182L652.703 334.032L652.605 331.762V331.029ZM682.635 336.645C683.676 336.645 684.572 336.409 685.32 335.937C685.727 335.676 685.931 335.155 685.931 334.374V334.228C685.931 333.056 685.573 332.071 684.856 331.273C684.14 330.46 683.123 330.053 681.805 330.053H681.512C680.031 330.053 678.663 330.606 677.41 331.713C676.173 332.82 675.555 334.219 675.555 335.912V336.327C675.555 336.832 675.937 337.084 676.702 337.084L676.946 337.133H677.825L677.972 337.108L679.314 337.011L679.485 336.986L680.389 336.913C680.503 336.897 680.633 336.881 680.779 336.864C680.926 336.848 681.219 336.807 681.658 336.742C682.114 336.677 682.439 336.645 682.635 336.645ZM681.341 351.269H680.779C679.135 351.252 677.638 350.951 676.287 350.365C673.699 349.226 671.95 347.273 671.038 344.506C670.534 342.96 670.281 341.397 670.281 339.818V338.72C670.298 337.076 670.615 335.44 671.233 333.812C672.503 330.525 674.594 328.344 677.508 327.27C678.875 326.781 680.275 326.537 681.707 326.537H682.244C684.555 326.537 686.476 327.253 688.006 328.686C689.536 330.102 690.301 332.038 690.301 334.496V334.984C690.301 336.71 689.747 337.922 688.641 338.622C687.794 339.159 685.849 339.647 682.806 340.087C679.778 340.526 677.964 340.844 677.361 341.039C676.385 341.348 675.896 341.796 675.896 342.382C675.896 343.863 676.637 345.1 678.118 346.093C678.981 346.662 680.324 346.947 682.146 346.947C682.895 346.947 684.059 346.728 685.638 346.288C687.233 345.832 688.234 345.604 688.641 345.604C689.601 345.604 690.081 346.093 690.081 347.069C690.081 348.046 689.145 348.99 687.273 349.901C685.418 350.813 683.44 351.269 681.341 351.269ZM699.896 348.266C698.756 346.54 698.187 343.725 698.187 339.818C698.187 335.912 697.951 333.251 697.479 331.835C697.283 331.249 696.893 330.728 696.307 330.272C695.737 329.817 695.452 329.206 695.452 328.441C695.452 327.676 695.761 327.058 696.38 326.586C696.51 326.488 696.819 326.301 697.308 326.024C697.796 325.731 698.121 325.463 698.284 325.219C698.447 324.991 698.618 324.21 698.797 322.875C699.188 320.206 699.904 318.871 700.945 318.871H701.312C702.142 318.871 702.728 319.205 703.069 319.872C703.248 320.198 703.427 321.06 703.606 322.46C703.802 323.86 704.062 324.779 704.388 325.219C704.713 325.642 705.543 326.09 706.878 326.562C708.213 327.034 708.88 327.611 708.88 328.295C708.88 328.962 708.335 329.467 707.244 329.809C705.617 330.313 704.64 330.883 704.314 331.518C703.549 332.999 703.167 335.985 703.167 340.478C703.167 342.561 703.403 343.993 703.875 344.774C704.347 345.539 705.006 346.085 705.853 346.41C705.934 346.443 706.268 346.549 706.854 346.728C707.456 346.89 707.936 347.11 708.294 347.387C708.652 347.647 708.831 348.087 708.831 348.705C708.831 349.307 708.538 349.812 707.952 350.219C707.334 350.626 706.471 350.829 705.364 350.829C702.874 350.829 701.051 349.975 699.896 348.266ZM725.604 336.645C726.645 336.645 727.54 336.409 728.289 335.937C728.696 335.676 728.899 335.155 728.899 334.374V334.228C728.899 333.056 728.541 332.071 727.825 331.273C727.109 330.46 726.092 330.053 724.773 330.053H724.48C722.999 330.053 721.632 330.606 720.379 331.713C719.142 332.82 718.523 334.219 718.523 335.912V336.327C718.523 336.832 718.906 337.084 719.671 337.084L719.915 337.133H720.794L720.94 337.108L722.283 337.011L722.454 336.986L723.357 336.913C723.471 336.897 723.602 336.881 723.748 336.864C723.895 336.848 724.188 336.807 724.627 336.742C725.083 336.677 725.408 336.645 725.604 336.645ZM724.31 351.269H723.748C722.104 351.252 720.607 350.951 719.256 350.365C716.668 349.226 714.918 347.273 714.007 344.506C713.502 342.96 713.25 341.397 713.25 339.818V338.72C713.266 337.076 713.584 335.44 714.202 333.812C715.472 330.525 717.563 328.344 720.477 327.27C721.844 326.781 723.243 326.537 724.676 326.537H725.213C727.524 326.537 729.445 327.253 730.975 328.686C732.505 330.102 733.27 332.038 733.27 334.496V334.984C733.27 336.71 732.716 337.922 731.609 338.622C730.763 339.159 728.818 339.647 725.774 340.087C722.747 340.526 720.932 340.844 720.33 341.039C719.354 341.348 718.865 341.796 718.865 342.382C718.865 343.863 719.606 345.1 721.087 346.093C721.95 346.662 723.292 346.947 725.115 346.947C725.864 346.947 727.028 346.728 728.606 346.288C730.201 345.832 731.202 345.604 731.609 345.604C732.57 345.604 733.05 346.093 733.05 347.069C733.05 348.046 732.114 348.99 730.242 349.901C728.387 350.813 726.409 351.269 724.31 351.269ZM742.254 314.916H743.06C743.841 314.916 744.37 315.079 744.646 315.404C744.923 315.73 745.102 316.137 745.184 316.625C745.265 317.113 745.306 318.204 745.306 319.896L745.184 325.023V325.878L745.135 327.172V328.026L745.013 333.227V334.081L744.988 334.936C744.988 338.272 745.021 340.347 745.086 341.161C745.167 341.959 745.428 343.375 745.867 345.409C746.307 347.444 746.526 348.469 746.526 348.485C746.526 349.397 746.331 350.04 745.94 350.414C745.566 350.772 744.882 350.951 743.89 350.951H743.475C742.4 350.951 741.611 350.577 741.106 349.828C740.358 348.738 739.983 347.183 739.983 345.165V343.603L740.008 343.188L740.057 341.601L740.081 341.186C740.081 340.909 740.081 340.632 740.081 340.355L740.13 338.646V337.792L740.179 335.619V334.765L740.252 332.152V331.298L740.325 328.271C740.325 327.978 740.325 327.685 740.325 327.392L740.374 325.683V324.828L740.423 322.68V320.995L740.301 317.821C740.301 316.796 740.447 316.055 740.74 315.6C741.033 315.144 741.538 314.916 742.254 314.916ZM755.584 314.916H756.39C757.171 314.916 757.7 315.079 757.977 315.404C758.253 315.73 758.432 316.137 758.514 316.625C758.595 317.113 758.636 318.204 758.636 319.896L758.514 325.023V325.878L758.465 327.172V328.026L758.343 333.227V334.081L758.318 334.936C758.318 338.272 758.351 340.347 758.416 341.161C758.497 341.959 758.758 343.375 759.197 345.409C759.637 347.444 759.856 348.469 759.856 348.485C759.856 349.397 759.661 350.04 759.271 350.414C758.896 350.772 758.213 350.951 757.22 350.951H756.805C755.73 350.951 754.941 350.577 754.437 349.828C753.688 348.738 753.313 347.183 753.313 345.165V343.603L753.338 343.188L753.387 341.601L753.411 341.186C753.411 340.909 753.411 340.632 753.411 340.355L753.46 338.646V337.792L753.509 335.619V334.765L753.582 332.152V331.298L753.655 328.271C753.655 327.978 753.655 327.685 753.655 327.392L753.704 325.683V324.828L753.753 322.68V320.995L753.631 317.821C753.631 316.796 753.777 316.055 754.07 315.6C754.363 315.144 754.868 314.916 755.584 314.916ZM772.308 319.726C772.308 321.418 771.347 322.265 769.427 322.265H769.231L769.134 322.24L768.401 322.167C768.336 322.151 768.279 322.143 768.23 322.143C767.173 322.143 766.644 321.418 766.644 319.97V319.506C766.644 318.611 766.847 317.96 767.254 317.553C767.661 317.146 768.165 316.942 768.768 316.942L769.329 316.869H769.891L770.721 316.991C771.73 316.991 772.234 317.561 772.234 318.7L772.308 319.262V319.726ZM771.502 339.745L772.527 347.24V347.777L772.503 348.021C772.503 349.079 772.283 349.828 771.844 350.268C771.404 350.707 770.55 350.927 769.28 350.927H768.987C767.848 350.927 767.124 350.308 766.814 349.071C766.652 348.437 766.57 345.987 766.57 341.723V331.273L766.448 329.638V329.101C766.448 328.303 766.595 327.75 766.888 327.44C767.181 327.131 767.645 326.977 768.279 326.977H769.109C770.265 326.977 770.973 327.392 771.233 328.222C771.347 328.58 771.404 329.914 771.404 332.226V337.499L771.478 338.964C771.494 339.159 771.502 339.42 771.502 339.745ZM779.656 330.028C779.835 328.726 780.34 328.075 781.17 328.075C782 328.075 782.757 328.352 783.44 328.905C784.124 329.459 784.563 329.735 784.759 329.735C784.954 329.735 785.483 329.499 786.346 329.027C787.225 328.539 787.77 328.246 787.981 328.148C789.3 327.562 790.626 327.27 791.961 327.27C794.435 327.27 796.266 328.091 797.454 329.735C798.659 331.379 799.261 334.358 799.261 338.671C799.261 339.55 799.375 341.381 799.603 344.164C799.847 346.931 799.969 348.355 799.969 348.437C799.969 349.494 799.358 350.023 798.138 350.023C796.917 350.023 796.103 349.348 795.696 347.997C795.306 346.646 794.956 344.083 794.646 340.307C794.354 336.514 794.02 334.179 793.646 333.3C792.946 331.64 791.668 330.81 789.812 330.81C788.885 330.81 787.998 331.078 787.151 331.615C786.321 332.152 785.662 332.942 785.174 333.983C784.702 335.025 784.311 337.491 784.002 341.381C783.709 345.271 783.473 347.549 783.294 348.217C783.115 348.884 782.83 349.397 782.439 349.755C782.065 350.097 781.536 350.268 780.853 350.268C780.185 350.268 779.713 350.113 779.437 349.804C779.176 349.478 779.046 348.795 779.046 347.753V347.143L779.07 346.508L779.144 343.334C779.144 342.911 779.144 342.488 779.144 342.064L779.192 340.16C779.192 335.749 779.347 332.372 779.656 330.028ZM820.745 336.913L820.696 335.717C820.696 334.154 820.354 332.966 819.671 332.152C818.987 331.339 818.027 330.932 816.79 330.932H815.887C815.089 330.932 814.267 331.168 813.421 331.64C812.591 332.112 811.924 332.722 811.419 333.471C810.426 334.968 809.93 337.157 809.93 340.038L809.954 340.282C809.954 342.512 810.296 344.197 810.979 345.336C811.891 346.866 813.087 347.631 814.568 347.631H815.228C816.871 347.631 818.19 347.045 819.183 345.873C820.175 344.701 820.672 342.87 820.672 340.38C820.704 340.054 820.721 339.81 820.721 339.647L820.77 338.402V337.157L820.745 336.913ZM805.853 338.964V337.646C805.853 336.262 806.105 334.846 806.609 333.397C807.13 331.933 807.749 330.777 808.465 329.931C810.06 328.043 812.387 327.099 815.447 327.099C816.603 327.099 817.856 327.318 819.207 327.758C820.558 328.197 821.705 328.417 822.649 328.417C824.163 328.417 825.083 328.995 825.408 330.15C825.75 331.306 825.921 334.952 825.921 341.088V344.481L825.97 346.386C826.002 347.216 826.019 347.639 826.019 347.655V350.902C826.019 354.385 825.083 357.152 823.211 359.203C822.251 360.245 821.014 361.034 819.5 361.571C818.003 362.125 816.513 362.401 815.032 362.401H814.349C812.786 362.401 811.272 362.117 809.808 361.547C808.359 360.977 807.635 360.253 807.635 359.374C807.635 358.365 808.424 357.86 810.003 357.86C810.166 357.86 810.621 357.901 811.37 357.982C812.119 358.064 812.973 358.104 813.934 358.104C815.919 358.104 817.571 357.51 818.89 356.322C820.224 355.15 820.892 353.604 820.892 351.684C820.892 350.756 820.615 350.292 820.062 350.292L816.692 350.634C811.679 350.634 808.359 348.428 806.731 344.018C806.146 342.39 805.853 340.705 805.853 338.964Z" fill="#F1F1F1"/>
<path d="M489.844 1446.84C491.302 1446.84 492.031 1447.57 492.031 1449.03C492.135 1449.45 492.188 1449.75 492.188 1449.94L492.219 1450.47V1450.75L492.188 1450.88C492.188 1453.23 491.25 1454.41 489.375 1454.41L488.594 1454.5H487.781L487.656 1454.47H487.375C487.208 1454.43 487.083 1454.41 487 1454.41C485.354 1454.41 484.531 1453.36 484.531 1451.28V1450.09C484.594 1449.78 484.625 1449.43 484.625 1449.03C484.625 1448.64 484.833 1448.18 485.25 1447.66C485.688 1447.14 486.302 1446.88 487.094 1446.88C487.344 1446.81 487.51 1446.78 487.594 1446.78L488.406 1446.72H488.688L488.812 1446.75L489.594 1446.81C489.677 1446.83 489.76 1446.84 489.844 1446.84ZM506.094 1446.84C507.552 1446.84 508.281 1447.57 508.281 1449.03C508.385 1449.45 508.438 1449.75 508.438 1449.94L508.469 1450.47V1450.75L508.438 1450.88C508.438 1453.23 507.5 1454.41 505.625 1454.41L504.844 1454.5H504.031L503.906 1454.47H503.625C503.458 1454.43 503.333 1454.41 503.25 1454.41C501.604 1454.41 500.781 1453.36 500.781 1451.28V1450.09C500.844 1449.78 500.875 1449.43 500.875 1449.03C500.875 1448.64 501.083 1448.18 501.5 1447.66C501.938 1447.14 502.552 1446.88 503.344 1446.88C503.594 1446.81 503.76 1446.78 503.844 1446.78L504.656 1446.72H504.938L505.062 1446.75L505.844 1446.81C505.927 1446.83 506.01 1446.84 506.094 1446.84ZM522.344 1446.84C523.802 1446.84 524.531 1447.57 524.531 1449.03C524.635 1449.45 524.688 1449.75 524.688 1449.94L524.719 1450.47V1450.75L524.688 1450.88C524.688 1453.23 523.75 1454.41 521.875 1454.41L521.094 1454.5H520.281L520.156 1454.47H519.875C519.708 1454.43 519.583 1454.41 519.5 1454.41C517.854 1454.41 517.031 1453.36 517.031 1451.28V1450.09C517.094 1449.78 517.125 1449.43 517.125 1449.03C517.125 1448.64 517.333 1448.18 517.75 1447.66C518.188 1447.14 518.802 1446.88 519.594 1446.88C519.844 1446.81 520.01 1446.78 520.094 1446.78L520.906 1446.72H521.188L521.312 1446.75L522.094 1446.81C522.177 1446.83 522.26 1446.84 522.344 1446.84ZM538.062 1445.41C538.062 1446.74 538.708 1447.85 540 1448.75C540.854 1449.35 542.062 1449.66 543.625 1449.66H543.812C544.188 1449.59 544.583 1449.56 545 1449.56C546.396 1449.56 547.646 1448.94 548.75 1447.69C549.875 1446.44 550.438 1445.24 550.438 1444.09L550.5 1443.72L550.594 1442.06V1440.44C550.594 1439.67 550.333 1439.15 549.812 1438.88C549.312 1438.58 548.344 1438.44 546.906 1438.44H546.469L546.25 1438.47H545.844L544.531 1438.56C544.094 1438.62 543.74 1438.66 543.469 1438.66C541.969 1438.66 540.677 1439.12 539.594 1440.06C538.531 1441 538 1442.25 538 1443.81V1444.72C538.042 1445.05 538.062 1445.28 538.062 1445.41ZM535.844 1428.38C534.469 1428.38 533.781 1427.62 533.781 1426.12C533.781 1425.08 534.5 1424.21 535.938 1423.5C538.229 1422.35 540.677 1421.78 543.281 1421.78H544.781C546.865 1421.78 548.812 1422.16 550.625 1422.91C552.458 1423.66 553.865 1424.81 554.844 1426.38C556.094 1428.35 556.719 1432.74 556.719 1439.53C556.719 1443.11 556.844 1445.76 557.094 1447.47C557.365 1449.18 557.5 1450.43 557.5 1451.22C557.5 1452.78 556.5 1453.56 554.5 1453.56C553.604 1453.56 552.771 1453.29 552 1452.75C551.229 1452.21 550.615 1451.94 550.156 1451.94C549.698 1451.94 548.479 1452.33 546.5 1453.12C544.521 1453.92 542.531 1454.31 540.531 1454.31C537.719 1454.31 535.51 1453.43 533.906 1451.66C532.323 1449.89 531.531 1447.71 531.531 1445.12V1444.41C531.531 1441.24 532.906 1438.79 535.656 1437.06C537.448 1435.94 540.208 1435.17 543.938 1434.75C547.688 1434.33 549.667 1434 549.875 1433.75C550.146 1433.44 550.281 1432.91 550.281 1432.16C550.281 1431.93 550.271 1431.69 550.25 1431.44C549.979 1428.48 547.896 1426.99 544 1426.97C542.562 1426.97 540.99 1427.21 539.281 1427.69C537.573 1428.15 536.427 1428.38 535.844 1428.38ZM566.531 1427.16C566.76 1425.49 567.406 1424.66 568.469 1424.66C569.531 1424.66 570.5 1425.01 571.375 1425.72C572.25 1426.43 572.812 1426.78 573.062 1426.78C573.312 1426.78 573.99 1426.48 575.094 1425.88C576.219 1425.25 576.917 1424.88 577.188 1424.75C578.875 1424 580.573 1423.62 582.281 1423.62C585.448 1423.62 587.792 1424.68 589.312 1426.78C590.854 1428.89 591.625 1432.7 591.625 1438.22C591.625 1439.34 591.771 1441.69 592.062 1445.25C592.375 1448.79 592.531 1450.61 592.531 1450.72C592.531 1452.07 591.75 1452.75 590.188 1452.75C588.625 1452.75 587.583 1451.89 587.062 1450.16C586.562 1448.43 586.115 1445.15 585.719 1440.31C585.344 1435.46 584.917 1432.47 584.438 1431.34C583.542 1429.22 581.906 1428.16 579.531 1428.16C578.344 1428.16 577.208 1428.5 576.125 1429.19C575.062 1429.88 574.219 1430.89 573.594 1432.22C572.99 1433.55 572.49 1436.71 572.094 1441.69C571.719 1446.67 571.417 1449.58 571.188 1450.44C570.958 1451.29 570.594 1451.95 570.094 1452.41C569.615 1452.84 568.938 1453.06 568.062 1453.06C567.208 1453.06 566.604 1452.86 566.25 1452.47C565.917 1452.05 565.75 1451.18 565.75 1449.84V1449.06L565.781 1448.25L565.875 1444.19C565.875 1443.65 565.875 1443.1 565.875 1442.56L565.938 1440.12C565.938 1434.48 566.135 1430.16 566.531 1427.16ZM605.062 1438.28V1440.34C605.104 1440.76 605.125 1441.08 605.125 1441.31C605.125 1443.67 605.75 1445.64 607 1447.22C608.271 1448.8 609.76 1449.59 611.469 1449.59H611.781C613.01 1449.59 614.146 1449.3 615.188 1448.72C616.229 1448.14 617 1447.4 617.5 1446.5C618.5 1444.73 619 1441.46 619 1436.69L619.031 1436.06V1435.44L619 1435.12L618.969 1434.19L618.875 1432.62C618.875 1430.94 618.396 1429.62 617.438 1428.69C616.5 1427.73 615.26 1427.25 613.719 1427.25H612.812C610.604 1427.25 608.76 1428.26 607.281 1430.28C605.802 1432.28 605.062 1434.95 605.062 1438.28ZM626.531 1448.94C626.531 1451.35 625.531 1452.56 623.531 1452.56C622.823 1452.56 622.115 1452.39 621.406 1452.03C620.698 1451.68 620.219 1451.5 619.969 1451.5C619.74 1451.5 618.698 1451.85 616.844 1452.56C615.01 1453.27 613.417 1453.62 612.062 1453.62H610.719C607.156 1453.62 604.396 1452.36 602.438 1449.84C600.479 1447.32 599.5 1443.98 599.5 1439.81L599.531 1439.06V1438.31C599.531 1436.4 599.875 1434.41 600.562 1432.34C601.271 1430.28 602.271 1428.48 603.562 1426.94C606.021 1424.06 609.25 1422.62 613.25 1422.62L617.781 1422.94C618.635 1422.94 619.188 1422.4 619.438 1421.31C619.688 1420.21 619.875 1418.29 620 1415.56C620.125 1412.81 620.354 1411.05 620.688 1410.28C621.188 1409.14 622.104 1408.56 623.438 1408.56H623.969C624.948 1408.56 625.594 1409.01 625.906 1409.91C626.052 1410.32 626.125 1411.92 626.125 1414.69L626.031 1418.28L626 1419L625.844 1427.72V1437.75C625.844 1438.65 625.938 1440.44 626.125 1443.12L626.312 1445.75C626.458 1447.79 626.531 1448.85 626.531 1448.94ZM655.594 1436.94C653.823 1435.42 652.938 1433.42 652.938 1430.94C652.938 1428.44 653.979 1426.38 656.062 1424.75C658.167 1423.12 660.948 1422.31 664.406 1422.31H665.188C667.104 1422.31 668.792 1422.58 670.25 1423.12C672.521 1423.98 673.656 1424.92 673.656 1425.94C673.656 1427.44 672.896 1428.19 671.375 1428.19C671.229 1428.19 670.344 1428 668.719 1427.62C667.115 1427.23 665.646 1427.03 664.312 1427.03C662.979 1427.03 661.781 1427.35 660.719 1428C659.656 1428.65 659.125 1429.58 659.125 1430.81C659.125 1432.04 659.781 1433.05 661.094 1433.84C661.885 1434.32 663.656 1435.03 666.406 1435.97C669.177 1436.91 671.25 1437.95 672.625 1439.09C674.417 1440.57 675.312 1442.47 675.312 1444.78V1445.53C675.312 1448.05 674.208 1450.15 672 1451.81C669.812 1453.48 667.135 1454.31 663.969 1454.31H663.156C660.448 1454.31 658.021 1453.83 655.875 1452.88C653.729 1451.9 652.656 1450.84 652.656 1449.72C652.656 1448.14 653.458 1447.34 655.062 1447.34C655.417 1447.34 656.49 1447.66 658.281 1448.28C660.094 1448.89 661.823 1449.19 663.469 1449.19C665.115 1449.19 666.458 1448.85 667.5 1448.19C668.542 1447.52 669.062 1446.57 669.062 1445.34C669.062 1444.09 668.396 1443.05 667.062 1442.22C666.25 1441.7 664.417 1440.94 661.562 1439.94C658.729 1438.92 656.74 1437.92 655.594 1436.94ZM685.594 1408.5C687.406 1408.5 688.542 1409.16 689 1410.47C689.25 1411.18 689.375 1413.68 689.375 1417.97C689.375 1422.24 689.771 1424.38 690.562 1424.38C690.833 1424.38 691.208 1424.3 691.688 1424.16L692.344 1423.94C692.969 1423.73 693.594 1423.54 694.219 1423.38C694.865 1423.21 696.188 1423.12 698.188 1423.12C702.188 1423.12 704.969 1425.17 706.531 1429.25C707.76 1432.38 708.375 1439.08 708.375 1449.38C708.375 1450.9 708.146 1451.86 707.688 1452.28C707.229 1452.7 706.573 1452.91 705.719 1452.91C704.427 1452.91 703.573 1451.94 703.156 1450C702.99 1449.25 702.771 1446.24 702.5 1440.97C702.25 1435.68 701.865 1432.44 701.344 1431.25C700.469 1429.19 698.948 1428.16 696.781 1428.16C693.823 1428.16 691.771 1429.41 690.625 1431.91C689.958 1433.3 689.458 1436.57 689.125 1441.72C688.792 1446.84 688.562 1449.66 688.438 1450.16C687.917 1452.2 686.885 1453.22 685.344 1453.22C684.427 1453.22 683.75 1453.01 683.312 1452.59C682.875 1452.18 682.656 1451.44 682.656 1450.38V1448.5L682.688 1447.5L682.781 1442.56L682.844 1438.66L682.906 1436.69L683 1430.78C683.021 1430.11 683.031 1429.46 683.031 1428.81L683.125 1422.97C683.125 1416.39 683.24 1412.33 683.469 1410.81C683.719 1409.27 684.427 1408.5 685.594 1408.5ZM730.844 1435.62C732.177 1435.62 733.323 1435.32 734.281 1434.72C734.802 1434.39 735.062 1433.72 735.062 1432.72V1432.53C735.062 1431.03 734.604 1429.77 733.688 1428.75C732.771 1427.71 731.469 1427.19 729.781 1427.19H729.406C727.51 1427.19 725.76 1427.9 724.156 1429.31C722.573 1430.73 721.781 1432.52 721.781 1434.69V1435.22C721.781 1435.86 722.271 1436.19 723.25 1436.19L723.562 1436.25H724.688L724.875 1436.22L726.594 1436.09L726.812 1436.06L727.969 1435.97C728.115 1435.95 728.281 1435.93 728.469 1435.91C728.656 1435.89 729.031 1435.83 729.594 1435.75C730.177 1435.67 730.594 1435.62 730.844 1435.62ZM729.188 1454.34H728.469C726.365 1454.32 724.448 1453.94 722.719 1453.19C719.406 1451.73 717.167 1449.23 716 1445.69C715.354 1443.71 715.031 1441.71 715.031 1439.69V1438.28C715.052 1436.18 715.458 1434.08 716.25 1432C717.875 1427.79 720.552 1425 724.281 1423.62C726.031 1423 727.823 1422.69 729.656 1422.69H730.344C733.302 1422.69 735.76 1423.6 737.719 1425.44C739.677 1427.25 740.656 1429.73 740.656 1432.88V1433.5C740.656 1435.71 739.948 1437.26 738.531 1438.16C737.448 1438.84 734.958 1439.47 731.062 1440.03C727.188 1440.59 724.865 1441 724.094 1441.25C722.844 1441.65 722.219 1442.22 722.219 1442.97C722.219 1444.86 723.167 1446.45 725.062 1447.72C726.167 1448.45 727.885 1448.81 730.219 1448.81C731.177 1448.81 732.667 1448.53 734.688 1447.97C736.729 1447.39 738.01 1447.09 738.531 1447.09C739.76 1447.09 740.375 1447.72 740.375 1448.97C740.375 1450.22 739.177 1451.43 736.781 1452.59C734.406 1453.76 731.875 1454.34 729.188 1454.34ZM770.656 1407.81H771.688C772.688 1407.81 773.365 1408.02 773.719 1408.44C774.073 1408.85 774.302 1409.38 774.406 1410C774.51 1410.62 774.562 1412.02 774.562 1414.19L774.406 1420.75V1421.84L774.344 1423.5V1424.59L774.188 1431.25V1432.34L774.156 1433.44C774.156 1437.71 774.198 1440.36 774.281 1441.41C774.385 1442.43 774.719 1444.24 775.281 1446.84C775.844 1449.45 776.125 1450.76 776.125 1450.78C776.125 1451.95 775.875 1452.77 775.375 1453.25C774.896 1453.71 774.021 1453.94 772.75 1453.94H772.219C770.844 1453.94 769.833 1453.46 769.188 1452.5C768.229 1451.1 767.75 1449.11 767.75 1446.53V1444.53L767.781 1444L767.844 1441.97L767.875 1441.44C767.875 1441.08 767.875 1440.73 767.875 1440.38L767.938 1438.19V1437.09L768 1434.31V1433.22L768.094 1429.88V1428.78L768.188 1424.91C768.188 1424.53 768.188 1424.16 768.188 1423.78L768.25 1421.59V1420.5L768.312 1417.75V1415.59L768.156 1411.53C768.156 1410.22 768.344 1409.27 768.719 1408.69C769.094 1408.1 769.74 1407.81 770.656 1407.81ZM788.844 1438.19V1439.91C788.844 1443.01 789.479 1445.44 790.75 1447.19C792.042 1448.92 793.76 1449.78 795.906 1449.78L796.219 1449.75C798.49 1449.75 800.281 1448.77 801.594 1446.81C802.906 1444.83 803.562 1442.02 803.562 1438.38V1437C803.562 1434.17 803 1431.81 801.875 1429.94C800.75 1428.06 799.177 1427.12 797.156 1427.12H796.25C794.083 1427.12 792.302 1428.14 790.906 1430.16C789.531 1432.18 788.844 1434.85 788.844 1438.19ZM810.219 1437.66V1438.66C810.219 1443.41 808.927 1447.25 806.344 1450.19C805.115 1451.6 803.542 1452.68 801.625 1453.41C799.708 1454.14 797.781 1454.5 795.844 1454.5H794.812C791.125 1454.5 788.115 1453.01 785.781 1450.03C783.906 1447.64 782.969 1444.27 782.969 1439.94V1438.38C783.01 1437.71 783.031 1436.83 783.031 1435.75C783.031 1434.73 783.354 1433.29 784 1431.44C785.271 1427.75 787.458 1425.22 790.562 1423.84C792.438 1423.01 794.271 1422.59 796.062 1422.59H797.062C801.208 1422.59 804.552 1424.07 807.094 1427.03C809.177 1429.45 810.219 1432.99 810.219 1437.66ZM814.719 1424.44C814.719 1423.71 815.333 1423.34 816.562 1423.34C817.812 1423.34 818.792 1423.59 819.5 1424.09C820.229 1424.59 820.927 1425.56 821.594 1427C822.281 1428.44 823.448 1432.06 825.094 1437.88C826.76 1443.67 827.885 1446.56 828.469 1446.56C828.948 1446.56 830.219 1443.48 832.281 1437.31C834.344 1431.12 835.771 1427.25 836.562 1425.69C837.354 1424.1 838.479 1423.31 839.938 1423.31C841.396 1423.31 842.125 1423.77 842.125 1424.69C842.125 1425.06 841.104 1428.4 839.062 1434.69C837.021 1440.96 835.021 1446.1 833.062 1450.12C832.312 1451.69 831.594 1452.69 830.906 1453.12C830.219 1453.56 829.312 1453.78 828.188 1453.78C827.062 1453.78 826.208 1453.55 825.625 1453.09C825.062 1452.64 824.167 1451.07 822.938 1448.41C821.708 1445.74 820.031 1441.14 817.906 1434.59C815.781 1428.05 814.719 1424.67 814.719 1424.44ZM861.844 1435.62C863.177 1435.62 864.323 1435.32 865.281 1434.72C865.802 1434.39 866.062 1433.72 866.062 1432.72V1432.53C866.062 1431.03 865.604 1429.77 864.688 1428.75C863.771 1427.71 862.469 1427.19 860.781 1427.19H860.406C858.51 1427.19 856.76 1427.9 855.156 1429.31C853.573 1430.73 852.781 1432.52 852.781 1434.69V1435.22C852.781 1435.86 853.271 1436.19 854.25 1436.19L854.562 1436.25H855.688L855.875 1436.22L857.594 1436.09L857.812 1436.06L858.969 1435.97C859.115 1435.95 859.281 1435.93 859.469 1435.91C859.656 1435.89 860.031 1435.83 860.594 1435.75C861.177 1435.67 861.594 1435.62 861.844 1435.62ZM860.188 1454.34H859.469C857.365 1454.32 855.448 1453.94 853.719 1453.19C850.406 1451.73 848.167 1449.23 847 1445.69C846.354 1443.71 846.031 1441.71 846.031 1439.69V1438.28C846.052 1436.18 846.458 1434.08 847.25 1432C848.875 1427.79 851.552 1425 855.281 1423.62C857.031 1423 858.823 1422.69 860.656 1422.69H861.344C864.302 1422.69 866.76 1423.6 868.719 1425.44C870.677 1427.25 871.656 1429.73 871.656 1432.88V1433.5C871.656 1435.71 870.948 1437.26 869.531 1438.16C868.448 1438.84 865.958 1439.47 862.062 1440.03C858.188 1440.59 855.865 1441 855.094 1441.25C853.844 1441.65 853.219 1442.22 853.219 1442.97C853.219 1444.86 854.167 1446.45 856.062 1447.72C857.167 1448.45 858.885 1448.81 861.219 1448.81C862.177 1448.81 863.667 1448.53 865.688 1447.97C867.729 1447.39 869.01 1447.09 869.531 1447.09C870.76 1447.09 871.375 1447.72 871.375 1448.97C871.375 1450.22 870.177 1451.43 867.781 1452.59C865.406 1453.76 862.875 1454.34 860.188 1454.34ZM884.375 1438.28V1440.34C884.417 1440.76 884.438 1441.08 884.438 1441.31C884.438 1443.67 885.062 1445.64 886.312 1447.22C887.583 1448.8 889.073 1449.59 890.781 1449.59H891.094C892.323 1449.59 893.458 1449.3 894.5 1448.72C895.542 1448.14 896.312 1447.4 896.812 1446.5C897.812 1444.73 898.312 1441.46 898.312 1436.69L898.344 1436.06V1435.44L898.312 1435.12L898.281 1434.19L898.188 1432.62C898.188 1430.94 897.708 1429.62 896.75 1428.69C895.812 1427.73 894.573 1427.25 893.031 1427.25H892.125C889.917 1427.25 888.073 1428.26 886.594 1430.28C885.115 1432.28 884.375 1434.95 884.375 1438.28ZM905.844 1448.94C905.844 1451.35 904.844 1452.56 902.844 1452.56C902.135 1452.56 901.427 1452.39 900.719 1452.03C900.01 1451.68 899.531 1451.5 899.281 1451.5C899.052 1451.5 898.01 1451.85 896.156 1452.56C894.323 1453.27 892.729 1453.62 891.375 1453.62H890.031C886.469 1453.62 883.708 1452.36 881.75 1449.84C879.792 1447.32 878.812 1443.98 878.812 1439.81L878.844 1439.06V1438.31C878.844 1436.4 879.188 1434.41 879.875 1432.34C880.583 1430.28 881.583 1428.48 882.875 1426.94C885.333 1424.06 888.562 1422.62 892.562 1422.62L897.094 1422.94C897.948 1422.94 898.5 1422.4 898.75 1421.31C899 1420.21 899.188 1418.29 899.312 1415.56C899.438 1412.81 899.667 1411.05 900 1410.28C900.5 1409.14 901.417 1408.56 902.75 1408.56H903.281C904.26 1408.56 904.906 1409.01 905.219 1409.91C905.365 1410.32 905.438 1411.92 905.438 1414.69L905.344 1418.28L905.312 1419L905.156 1427.72V1437.75C905.156 1438.65 905.25 1440.44 905.438 1443.12L905.625 1445.75C905.771 1447.79 905.844 1448.85 905.844 1448.94ZM919.594 1446.84C921.052 1446.84 921.781 1447.57 921.781 1449.03C921.885 1449.45 921.938 1449.75 921.938 1449.94L921.969 1450.47V1450.75L921.938 1450.88C921.938 1453.23 921 1454.41 919.125 1454.41L918.344 1454.5H917.531L917.406 1454.47H917.125C916.958 1454.43 916.833 1454.41 916.75 1454.41C915.104 1454.41 914.281 1453.36 914.281 1451.28V1450.09C914.344 1449.78 914.375 1449.43 914.375 1449.03C914.375 1448.64 914.583 1448.18 915 1447.66C915.438 1447.14 916.052 1446.88 916.844 1446.88C917.094 1446.81 917.26 1446.78 917.344 1446.78L918.156 1446.72H918.438L918.562 1446.75L919.344 1446.81C919.427 1446.83 919.51 1446.84 919.594 1446.84ZM935.844 1446.84C937.302 1446.84 938.031 1447.57 938.031 1449.03C938.135 1449.45 938.188 1449.75 938.188 1449.94L938.219 1450.47V1450.75L938.188 1450.88C938.188 1453.23 937.25 1454.41 935.375 1454.41L934.594 1454.5H933.781L933.656 1454.47H933.375C933.208 1454.43 933.083 1454.41 933 1454.41C931.354 1454.41 930.531 1453.36 930.531 1451.28V1450.09C930.594 1449.78 930.625 1449.43 930.625 1449.03C930.625 1448.64 930.833 1448.18 931.25 1447.66C931.688 1447.14 932.302 1446.88 933.094 1446.88C933.344 1446.81 933.51 1446.78 933.594 1446.78L934.406 1446.72H934.688L934.812 1446.75L935.594 1446.81C935.677 1446.83 935.76 1446.84 935.844 1446.84ZM952.094 1446.84C953.552 1446.84 954.281 1447.57 954.281 1449.03C954.385 1449.45 954.438 1449.75 954.438 1449.94L954.469 1450.47V1450.75L954.438 1450.88C954.438 1453.23 953.5 1454.41 951.625 1454.41L950.844 1454.5H950.031L949.906 1454.47H949.625C949.458 1454.43 949.333 1454.41 949.25 1454.41C947.604 1454.41 946.781 1453.36 946.781 1451.28V1450.09C946.844 1449.78 946.875 1449.43 946.875 1449.03C946.875 1448.64 947.083 1448.18 947.5 1447.66C947.938 1447.14 948.552 1446.88 949.344 1446.88C949.594 1446.81 949.76 1446.78 949.844 1446.78L950.656 1446.72H950.938L951.062 1446.75L951.844 1446.81C951.927 1446.83 952.01 1446.84 952.094 1446.84Z" fill="#7B7B7B"/>
</g>
<defs>
<clipPath id="clip0">
<rect width="1440" height="3500" fill="white"/>
</clipPath>
</defs>
</svg>
