<svg width="1440" height="3500" viewBox="0 0 1440 3500" fill="none" xmlns="http://www.w3.org/2000/svg">
<g clip-path="url(#clip0)">
<path d="M1493 3489.68C1352.11 3435.79 1218.62 3378.61 1072.08 3327.31C925.543 3276 764.142 3230.29 582.898 3203.3C499.907 3190.95 413.687 3182.65 327.575 3174.63C213.633 3164.02 86.8073 3154.55 -16 3181.76C-11.0502 3309.34 -6.10048 3436.91 -1.15073 3564.49C35.4864 3556.38 80.119 3559.27 121.291 3561.85C252.316 3570.03 385.384 3572.74 517.748 3569.92C597.538 3568.21 677.037 3564.51 756.88 3563.28C822.638 3562.27 888.475 3562.95 954.258 3563.63C1132.28 3565.46 1310.31 3567.3 1488.34 3569.13C1487.1 3541.7 1485.88 3514.27 1493 3489.68Z" fill="#49A383"/>
<path d="M-121.298 1451.31C-201.252 1423.9 -242.419 1348.78 -253.008 1314.65C-321.897 1314.65 -459.675 1298.22 -459.675 1232.5C-459.675 1166.78 -401.137 1114.01 -371.868 1095.84C-403.278 1091.3 -464.814 1060.33 -459.675 972.81C-454.535 885.287 -319.755 836.152 -253.008 822.525C-253.008 761.01 -209.105 631.36 -121.298 569.844C-51.0529 520.632 20.7629 549.339 47.8902 569.844C70.8531 526.498 140.551 437.079 235.639 426.178C330.727 415.276 421.366 517.413 454.799 569.844C471.575 556.088 528.899 527.25 623.987 521.955C719.075 516.66 797.339 633.696 824.586 692.875C847.549 658.614 918.531 598.344 1018.76 631.36C1118.99 664.376 1093.84 836.412 1068.73 918.303C1102.16 927.388 1169.03 983.79 1169.03 1136.72C1169.03 1289.65 1068.85 1319.06 1018.76 1314.65C1014.6 1389.79 969.93 1540.08 824.586 1540.08C679.241 1540.08 551.053 1480.9 505.127 1451.31C467.529 1480.9 376.058 1540.08 310.953 1540.08C245.848 1540.08 179.362 1458.06 154.257 1417.05C95.7197 1439.89 -41.3441 1478.72 -121.298 1451.31Z" fill="#98C797"/>
<path d="M101.708 3539.5C91.2398 3396.5 76.5848 2881.24 101.708 2763.17C133.111 2615.59 226.965 1717.24 226.965 1609.99C226.965 1502.74 143.46 1295.11 -54.9531 1254.78L-183.779 1140C-142.44 1174.21 52.1858 1233.28 110.629 1272.74C82.7942 1231 31.1211 1138.27 47.1084 1101.23C63.0956 1064.2 -39.0135 985.275 -92.0664 950.441C-31.7574 975.191 86.5055 1037.16 77.0845 1087.03C67.6634 1136.89 118.123 1246.26 144.531 1294.71C182.145 1317.91 213.161 1332.47 226.965 1328.57C274.07 1315.28 221.612 1126.9 268.717 1046.69C277.995 1030.89 288.061 1008.08 298.009 981.15C210.593 777.368 -26.3261 778.094 -156.637 808.132C-165.473 810.313 -174.519 812.676 -183.779 815.231C-175.388 812.751 -166.306 810.361 -156.637 808.132C54.8433 755.93 146.449 807.752 192.35 815.231C230.605 821.464 288.634 899.413 312.867 937.607C347.15 829.259 375.663 691.733 400.828 652.303C436.514 596.385 435.093 574.802 415.743 715.631C406.354 783.968 395.894 872.046 384.376 946.454C422.998 918.425 462.137 896.382 490.683 894.524C552.634 890.49 706.345 752.897 775.456 684.604C709.081 770.619 565.624 941.641 522.801 937.607C479.978 933.574 391.239 1035.54 352.222 1087.03C321.176 1147.53 352.222 1364.78 352.222 1476.16C408.011 1366.61 467.076 1254.78 563 1254.78C658.924 1254.78 746.539 935.002 797 764.5C797 918.362 805.413 848.5 781.707 937.607C846.731 899.064 943.744 899.062 1002.06 905.788C1010.86 906.421 1019.57 907.68 1028.11 909.649C1020.78 908.271 1011.98 906.932 1002.06 905.788C910.847 899.231 809.068 959.847 766.391 993.983C735.325 1105.77 704.881 1198.79 686.599 1214.44C639.493 1254.78 347.226 1475.7 373.277 1630.16C399.328 1784.62 341.873 2555.54 373.277 2716.42C398.4 2845.12 421.5 3385.35 451 3539.5H101.708Z" fill="#D19A7D"/>
<path d="M163.807 3241.9C163.807 3241.9 164.203 3234.28 164.605 3230.69C165.427 3223.26 165.369 3215.83 166.661 3208.62C170.286 3214.8 177.094 3224.21 177.094 3224.21C177.094 3224.21 188.043 3212.21 194.62 3207.17C193.386 3219.32 192.017 3229.74 190.783 3241.9M221.785 3208.19C219.776 3207.25 208.263 3208.19 208.263 3208.19C208.263 3208.19 207.019 3211.71 207 3213.55C206.918 3220.45 206.84 3227.36 206.758 3234.27C206.724 3237.17 206.686 3240.1 205.776 3242.91C209.139 3242.01 219.038 3242.39 222.59 3242.27M206.876 3224.21C208.739 3224.38 214.687 3224.04 216.551 3224.21M233.778 3246.92C233.972 3252.78 234.266 3265.61 234.266 3265.61M225.006 3256.35C229.371 3255.47 238.215 3254.86 242.721 3254.87M172.537 3280.89C176.511 3280.8 180.473 3280.47 184.382 3279.91M192.694 3278.34C189.961 3278.98 187.185 3279.5 184.382 3279.91M203.54 3306.26C203.482 3306.67 203.598 3305.85 203.54 3306.26ZM203.54 3306.26C203.206 3304.71 203.206 3303.12 203.206 3301.54C203.211 3293.57 203.215 3285.6 203.816 3277.64C206.119 3277.59 208.462 3277.55 210.688 3278.01C212.914 3278.48 215.053 3279.53 216.074 3281.15C216.384 3281.65 216.587 3282.24 216.321 3282.76C216.099 3283.19 215.586 3283.49 215.097 3283.77C211.888 3285.57 202.872 3290.1 202.872 3290.1C202.872 3290.1 213.34 3302.22 217.289 3308.63M243.196 3308.7C238.714 3309.14 234.218 3309.47 229.713 3309.7C230.739 3299.56 227.612 3289.29 229.587 3279.25C229.713 3278.61 230.284 3277.42 230.284 3277.42L239.992 3276.6L248.084 3276.52M229.364 3293.01C230.937 3293.17 232.549 3293.1 234.093 3292.82C235.428 3292.57 236.88 3292.17 238.109 3292.65M279.411 3272.15C276.808 3272.04 274.155 3271.94 271.634 3272.45C269.112 3272.97 266.693 3274.23 265.705 3276.12C265.086 3277.31 265.071 3278.63 265.067 3279.91C265.013 3290.45 264.96 3301 264.907 3311.55C271.184 3310.94 277.48 3310.43 283.791 3310.04M265.976 3290.37C268.333 3290.94 270.889 3291 273.284 3290.53M184.382 3279.91V3308.63M224.055 3365.99C243.714 3349.06 267.83 3335.68 288.118 3319.21C305.183 3305.36 319.382 3289.45 331.525 3272.7C338.707 3262.79 345.241 3252.47 348.817 3241.41C351.963 3231.68 352.757 3221.6 353.531 3211.58C354.233 3202.57 354.925 3193.46 352.969 3184.56C351.745 3179 349.33 3173.36 344.287 3169.34C338.233 3164.51 329.11 3162.66 320.495 3163.05C311.885 3163.43 303.634 3165.8 295.648 3168.37C277.204 3176.23 247.165 3203.33 247.165 3203.33C247.165 3203.33 243.278 3192.89 238.405 3188.9C226.16 3178.9 211.743 3169.84 194.62 3166.46C177.497 3163.08 157.272 3166.6 146.848 3177.81C142.676 3182.29 140.309 3187.64 138.432 3193C127.804 3223.27 131.235 3255.79 142.24 3285.97C146.838 3298.59 152.772 3310.97 161.246 3322.27C168.559 3332.02 177.715 3340.88 187.98 3348.81C197.872 3356.47 209.507 3363.53 224.055 3365.99Z" stroke="#763916" stroke-opacity="0.15" stroke-width="4" stroke-miterlimit="10" stroke-linecap="round" stroke-linejoin="round"/>
<path d="M803.125 1089.56V1091.62C803.125 1094 803.396 1096.19 803.938 1098.19C804.979 1101.98 806.74 1104.58 809.219 1106C810.677 1106.85 812.26 1107.28 813.969 1107.28H814.938C816.604 1107.28 818.104 1106.84 819.438 1105.97C823.438 1103.36 825.448 1098.17 825.469 1090.38V1088.31C825.469 1083.69 824.552 1079.91 822.719 1076.97C821.906 1075.66 820.844 1074.6 819.531 1073.81C818.24 1073.02 816.896 1072.62 815.5 1072.62H814.062C812.438 1072.62 810.917 1073.08 809.5 1074C808.083 1074.92 806.969 1075.99 806.156 1077.22C805.344 1078.45 804.635 1080.16 804.031 1082.34C803.427 1084.51 803.125 1086.92 803.125 1089.56ZM832.406 1088.19V1090.31C832.406 1093.54 832.01 1096.6 831.219 1099.5C830.427 1102.38 829.281 1104.71 827.781 1106.5C826.281 1108.27 824.406 1109.72 822.156 1110.84C819.927 1111.97 817.646 1112.53 815.312 1112.53H813.219C811.01 1112.51 808.844 1112.02 806.719 1111.06C802.385 1109.08 799.438 1105.26 797.875 1099.59C797.208 1097.18 796.875 1094.29 796.875 1090.94L796.906 1090.25C796.927 1087.19 797.333 1084.17 798.125 1081.19C799.75 1075.17 802.854 1071.1 807.438 1069C809.542 1068.04 811.812 1067.56 814.25 1067.56H815.625C817.792 1067.56 819.99 1068.04 822.219 1069C826.469 1070.85 829.438 1074.4 831.125 1079.62C831.979 1082.25 832.406 1085.1 832.406 1088.19ZM840.969 1085.16C841.198 1083.49 841.844 1082.66 842.906 1082.66C843.969 1082.66 844.938 1083.01 845.812 1083.72C846.688 1084.43 847.25 1084.78 847.5 1084.78C847.75 1084.78 848.427 1084.48 849.531 1083.88C850.656 1083.25 851.354 1082.88 851.625 1082.75C853.312 1082 855.01 1081.62 856.719 1081.62C859.885 1081.62 862.229 1082.68 863.75 1084.78C865.292 1086.89 866.062 1090.7 866.062 1096.22C866.062 1097.34 866.208 1099.69 866.5 1103.25C866.812 1106.79 866.969 1108.61 866.969 1108.72C866.969 1110.07 866.188 1110.75 864.625 1110.75C863.062 1110.75 862.021 1109.89 861.5 1108.16C861 1106.43 860.552 1103.15 860.156 1098.31C859.781 1093.46 859.354 1090.47 858.875 1089.34C857.979 1087.22 856.344 1086.16 853.969 1086.16C852.781 1086.16 851.646 1086.5 850.562 1087.19C849.5 1087.88 848.656 1088.89 848.031 1090.22C847.427 1091.55 846.927 1094.71 846.531 1099.69C846.156 1104.67 845.854 1107.58 845.625 1108.44C845.396 1109.29 845.031 1109.95 844.531 1110.41C844.052 1110.84 843.375 1111.06 842.5 1111.06C841.646 1111.06 841.042 1110.86 840.688 1110.47C840.354 1110.05 840.188 1109.18 840.188 1107.84V1107.06L840.219 1106.25L840.312 1102.19C840.312 1101.65 840.312 1101.1 840.312 1100.56L840.375 1098.12C840.375 1092.48 840.573 1088.16 840.969 1085.16ZM887.062 1112.16H885.688C883.958 1112.16 882.26 1111.79 880.594 1111.06C878.927 1110.31 877.542 1109.27 876.438 1107.94C874.354 1105.46 873.312 1102.1 873.312 1097.88V1096.44C873.312 1091.73 874.562 1087.99 877.062 1085.22C878.396 1083.74 879.958 1082.64 881.75 1081.91C883.562 1081.16 885.333 1080.78 887.062 1080.78H888.406C890.385 1080.78 892.24 1081.31 893.969 1082.38C895.698 1083.42 896.562 1084.48 896.562 1085.56C896.562 1087.06 895.812 1087.81 894.312 1087.81C894.188 1087.81 893.24 1087.55 891.469 1087.03C889.698 1086.51 888.219 1086.25 887.031 1086.25C882.073 1086.25 879.594 1089.98 879.594 1097.44C879.594 1100.58 880.323 1102.95 881.781 1104.53C883.24 1106.09 885.271 1106.88 887.875 1106.88C888.833 1106.88 890.375 1106.56 892.5 1105.94C894.646 1105.29 895.938 1104.97 896.375 1104.97C897.354 1104.97 897.844 1105.6 897.844 1106.88C897.844 1108.15 896.438 1109.43 893.625 1110.72C891.542 1111.68 889.354 1112.16 887.062 1112.16ZM918.531 1093.62C919.865 1093.62 921.01 1093.32 921.969 1092.72C922.49 1092.39 922.75 1091.72 922.75 1090.72V1090.53C922.75 1089.03 922.292 1087.77 921.375 1086.75C920.458 1085.71 919.156 1085.19 917.469 1085.19H917.094C915.198 1085.19 913.448 1085.9 911.844 1087.31C910.26 1088.73 909.469 1090.52 909.469 1092.69V1093.22C909.469 1093.86 909.958 1094.19 910.938 1094.19L911.25 1094.25H912.375L912.562 1094.22L914.281 1094.09L914.5 1094.06L915.656 1093.97C915.802 1093.95 915.969 1093.93 916.156 1093.91C916.344 1093.89 916.719 1093.83 917.281 1093.75C917.865 1093.67 918.281 1093.62 918.531 1093.62ZM916.875 1112.34H916.156C914.052 1112.32 912.135 1111.94 910.406 1111.19C907.094 1109.73 904.854 1107.23 903.688 1103.69C903.042 1101.71 902.719 1099.71 902.719 1097.69V1096.28C902.74 1094.18 903.146 1092.08 903.938 1090C905.562 1085.79 908.24 1083 911.969 1081.62C913.719 1081 915.51 1080.69 917.344 1080.69H918.031C920.99 1080.69 923.448 1081.6 925.406 1083.44C927.365 1085.25 928.344 1087.73 928.344 1090.88V1091.5C928.344 1093.71 927.635 1095.26 926.219 1096.16C925.135 1096.84 922.646 1097.47 918.75 1098.03C914.875 1098.59 912.552 1099 911.781 1099.25C910.531 1099.65 909.906 1100.22 909.906 1100.97C909.906 1102.86 910.854 1104.45 912.75 1105.72C913.854 1106.45 915.573 1106.81 917.906 1106.81C918.865 1106.81 920.354 1106.53 922.375 1105.97C924.417 1105.39 925.698 1105.09 926.219 1105.09C927.448 1105.09 928.062 1105.72 928.062 1106.97C928.062 1108.22 926.865 1109.43 924.469 1110.59C922.094 1111.76 919.562 1112.34 916.875 1112.34ZM959.125 1108.5C957.667 1106.29 956.938 1102.69 956.938 1097.69C956.938 1092.69 956.635 1089.28 956.031 1087.47C955.781 1086.72 955.281 1086.05 954.531 1085.47C953.802 1084.89 953.438 1084.1 953.438 1083.12C953.438 1082.15 953.833 1081.35 954.625 1080.75C954.792 1080.62 955.188 1080.39 955.812 1080.03C956.438 1079.66 956.854 1079.31 957.062 1079C957.271 1078.71 957.49 1077.71 957.719 1076C958.219 1072.58 959.135 1070.88 960.469 1070.88H960.938C962 1070.88 962.75 1071.3 963.188 1072.16C963.417 1072.57 963.646 1073.68 963.875 1075.47C964.125 1077.26 964.458 1078.44 964.875 1079C965.292 1079.54 966.354 1080.11 968.062 1080.72C969.771 1081.32 970.625 1082.06 970.625 1082.94C970.625 1083.79 969.927 1084.44 968.531 1084.88C966.448 1085.52 965.198 1086.25 964.781 1087.06C963.802 1088.96 963.312 1092.78 963.312 1098.53C963.312 1101.2 963.615 1103.03 964.219 1104.03C964.823 1105.01 965.667 1105.71 966.75 1106.12C966.854 1106.17 967.281 1106.3 968.031 1106.53C968.802 1106.74 969.417 1107.02 969.875 1107.38C970.333 1107.71 970.562 1108.27 970.562 1109.06C970.562 1109.83 970.188 1110.48 969.438 1111C968.646 1111.52 967.542 1111.78 966.125 1111.78C962.938 1111.78 960.604 1110.69 959.125 1108.5ZM981.281 1066.5C983.094 1066.5 984.229 1067.16 984.688 1068.47C984.938 1069.18 985.062 1071.68 985.062 1075.97C985.062 1080.24 985.458 1082.38 986.25 1082.38C986.521 1082.38 986.896 1082.3 987.375 1082.16L988.031 1081.94C988.656 1081.73 989.281 1081.54 989.906 1081.38C990.552 1081.21 991.875 1081.12 993.875 1081.12C997.875 1081.12 1000.66 1083.17 1002.22 1087.25C1003.45 1090.38 1004.06 1097.08 1004.06 1107.38C1004.06 1108.9 1003.83 1109.86 1003.38 1110.28C1002.92 1110.7 1002.26 1110.91 1001.41 1110.91C1000.11 1110.91 999.26 1109.94 998.844 1108C998.677 1107.25 998.458 1104.24 998.188 1098.97C997.938 1093.68 997.552 1090.44 997.031 1089.25C996.156 1087.19 994.635 1086.16 992.469 1086.16C989.51 1086.16 987.458 1087.41 986.312 1089.91C985.646 1091.3 985.146 1094.57 984.812 1099.72C984.479 1104.84 984.25 1107.66 984.125 1108.16C983.604 1110.2 982.573 1111.22 981.031 1111.22C980.115 1111.22 979.438 1111.01 979 1110.59C978.562 1110.18 978.344 1109.44 978.344 1108.38V1106.5L978.375 1105.5L978.469 1100.56L978.531 1096.66L978.594 1094.69L978.688 1088.78C978.708 1088.11 978.719 1087.46 978.719 1086.81L978.812 1080.97C978.812 1074.39 978.927 1070.33 979.156 1068.81C979.406 1067.27 980.115 1066.5 981.281 1066.5ZM1026.53 1093.62C1027.86 1093.62 1029.01 1093.32 1029.97 1092.72C1030.49 1092.39 1030.75 1091.72 1030.75 1090.72V1090.53C1030.75 1089.03 1030.29 1087.77 1029.38 1086.75C1028.46 1085.71 1027.16 1085.19 1025.47 1085.19H1025.09C1023.2 1085.19 1021.45 1085.9 1019.84 1087.31C1018.26 1088.73 1017.47 1090.52 1017.47 1092.69V1093.22C1017.47 1093.86 1017.96 1094.19 1018.94 1094.19L1019.25 1094.25H1020.38L1020.56 1094.22L1022.28 1094.09L1022.5 1094.06L1023.66 1093.97C1023.8 1093.95 1023.97 1093.93 1024.16 1093.91C1024.34 1093.89 1024.72 1093.83 1025.28 1093.75C1025.86 1093.67 1026.28 1093.62 1026.53 1093.62ZM1024.88 1112.34H1024.16C1022.05 1112.32 1020.14 1111.94 1018.41 1111.19C1015.09 1109.73 1012.85 1107.23 1011.69 1103.69C1011.04 1101.71 1010.72 1099.71 1010.72 1097.69V1096.28C1010.74 1094.18 1011.15 1092.08 1011.94 1090C1013.56 1085.79 1016.24 1083 1019.97 1081.62C1021.72 1081 1023.51 1080.69 1025.34 1080.69H1026.03C1028.99 1080.69 1031.45 1081.6 1033.41 1083.44C1035.36 1085.25 1036.34 1087.73 1036.34 1090.88V1091.5C1036.34 1093.71 1035.64 1095.26 1034.22 1096.16C1033.14 1096.84 1030.65 1097.47 1026.75 1098.03C1022.88 1098.59 1020.55 1099 1019.78 1099.25C1018.53 1099.65 1017.91 1100.22 1017.91 1100.97C1017.91 1102.86 1018.85 1104.45 1020.75 1105.72C1021.85 1106.45 1023.57 1106.81 1025.91 1106.81C1026.86 1106.81 1028.35 1106.53 1030.38 1105.97C1032.42 1105.39 1033.7 1105.09 1034.22 1105.09C1035.45 1105.09 1036.06 1105.72 1036.06 1106.97C1036.06 1108.22 1034.86 1109.43 1032.47 1110.59C1030.09 1111.76 1027.56 1112.34 1024.88 1112.34ZM1044.59 1086.44C1044.59 1085 1044.77 1083.94 1045.12 1083.25C1045.48 1082.54 1046.14 1082.19 1047.09 1082.19C1048.05 1082.19 1049.16 1082.53 1050.41 1083.22C1051.66 1083.91 1052.35 1084.25 1052.5 1084.25C1052.67 1084.25 1053.02 1084.06 1053.56 1083.69C1055.58 1082.27 1057.38 1081.56 1058.94 1081.56H1059.81C1060.77 1081.56 1061.57 1081.82 1062.22 1082.34C1062.89 1082.86 1063.22 1083.6 1063.22 1084.56C1063.22 1085.5 1062.8 1086.19 1061.97 1086.62C1061.61 1086.81 1060.88 1086.97 1059.75 1087.09C1058.62 1087.22 1057.52 1087.49 1056.44 1087.91C1055.38 1088.32 1054.43 1089.14 1053.59 1090.34C1052.39 1092.11 1051.78 1095.56 1051.78 1100.69L1051.66 1104.19L1051.59 1106.19C1051.59 1108.04 1051.29 1109.41 1050.69 1110.28C1050.1 1111.16 1049.1 1111.59 1047.69 1111.59H1047.22C1045.97 1111.59 1045.21 1110.96 1044.94 1109.69C1044.92 1109.58 1044.91 1107.6 1044.91 1103.75V1097.47L1044.88 1096.94V1095.91L1044.84 1095.38C1044.84 1095.02 1044.84 1094.67 1044.84 1094.31L1044.72 1090.28L1044.59 1087.38V1086.44ZM1083.03 1093.62C1084.36 1093.62 1085.51 1093.32 1086.47 1092.72C1086.99 1092.39 1087.25 1091.72 1087.25 1090.72V1090.53C1087.25 1089.03 1086.79 1087.77 1085.88 1086.75C1084.96 1085.71 1083.66 1085.19 1081.97 1085.19H1081.59C1079.7 1085.19 1077.95 1085.9 1076.34 1087.31C1074.76 1088.73 1073.97 1090.52 1073.97 1092.69V1093.22C1073.97 1093.86 1074.46 1094.19 1075.44 1094.19L1075.75 1094.25H1076.88L1077.06 1094.22L1078.78 1094.09L1079 1094.06L1080.16 1093.97C1080.3 1093.95 1080.47 1093.93 1080.66 1093.91C1080.84 1093.89 1081.22 1093.83 1081.78 1093.75C1082.36 1093.67 1082.78 1093.62 1083.03 1093.62ZM1081.38 1112.34H1080.66C1078.55 1112.32 1076.64 1111.94 1074.91 1111.19C1071.59 1109.73 1069.35 1107.23 1068.19 1103.69C1067.54 1101.71 1067.22 1099.71 1067.22 1097.69V1096.28C1067.24 1094.18 1067.65 1092.08 1068.44 1090C1070.06 1085.79 1072.74 1083 1076.47 1081.62C1078.22 1081 1080.01 1080.69 1081.84 1080.69H1082.53C1085.49 1080.69 1087.95 1081.6 1089.91 1083.44C1091.86 1085.25 1092.84 1087.73 1092.84 1090.88V1091.5C1092.84 1093.71 1092.14 1095.26 1090.72 1096.16C1089.64 1096.84 1087.15 1097.47 1083.25 1098.03C1079.38 1098.59 1077.05 1099 1076.28 1099.25C1075.03 1099.65 1074.41 1100.22 1074.41 1100.97C1074.41 1102.86 1075.35 1104.45 1077.25 1105.72C1078.35 1106.45 1080.07 1106.81 1082.41 1106.81C1083.36 1106.81 1084.85 1106.53 1086.88 1105.97C1088.92 1105.39 1090.2 1105.09 1090.72 1105.09C1091.95 1105.09 1092.56 1105.72 1092.56 1106.97C1092.56 1108.22 1091.36 1109.43 1088.97 1110.59C1086.59 1111.76 1084.06 1112.34 1081.38 1112.34ZM888.688 1156.56C888.417 1156.56 887.438 1158.4 885.75 1162.06C884.062 1165.73 882.823 1168.16 882.031 1169.34C880.698 1171.34 879.49 1172.34 878.406 1172.34C876.406 1172.34 875.042 1171.31 874.312 1169.25C873.417 1166.77 872.323 1162.53 871.031 1156.53C869.76 1150.53 869.125 1146.91 869.125 1145.66C869.125 1144.95 869.438 1144.59 870.062 1144.59C871.458 1144.59 872.677 1145.65 873.719 1147.75C873.781 1147.88 874.646 1150.77 876.312 1156.44C877.979 1162.1 879.188 1164.94 879.938 1164.94C880.479 1164.94 881.479 1162.44 882.938 1157.44C883.438 1155.73 883.938 1153.86 884.438 1151.84L884.938 1149.62C885.354 1147.77 885.615 1146.71 885.719 1146.44C886.198 1145.08 887.188 1144.41 888.688 1144.41C890.208 1144.41 891.208 1144.89 891.688 1145.84C892.167 1146.78 893.062 1150.21 894.375 1156.12C895.688 1162.02 896.688 1164.97 897.375 1164.97C898.062 1164.97 899.417 1161.91 901.438 1155.78C903.458 1149.64 904.521 1146.47 904.625 1146.28C905.396 1144.99 906.406 1144.34 907.656 1144.34C908.052 1144.34 908.25 1144.59 908.25 1145.09C908.25 1146.55 907.781 1149.71 906.844 1154.56C905.927 1159.4 904.75 1163.94 903.312 1168.19C902.854 1169.52 902.292 1170.5 901.625 1171.12C900.979 1171.75 900.042 1172.06 898.812 1172.06C896.708 1172.06 893.896 1168.12 890.375 1160.25C889.292 1157.79 888.729 1156.56 888.688 1156.56ZM920.375 1165.41C920.375 1166.74 921.021 1167.85 922.312 1168.75C923.167 1169.35 924.375 1169.66 925.938 1169.66H926.125C926.5 1169.59 926.896 1169.56 927.312 1169.56C928.708 1169.56 929.958 1168.94 931.062 1167.69C932.188 1166.44 932.75 1165.24 932.75 1164.09L932.812 1163.72L932.906 1162.06V1160.44C932.906 1159.67 932.646 1159.15 932.125 1158.88C931.625 1158.58 930.656 1158.44 929.219 1158.44H928.781L928.562 1158.47H928.156L926.844 1158.56C926.406 1158.62 926.052 1158.66 925.781 1158.66C924.281 1158.66 922.99 1159.12 921.906 1160.06C920.844 1161 920.312 1162.25 920.312 1163.81V1164.72C920.354 1165.05 920.375 1165.28 920.375 1165.41ZM918.156 1148.38C916.781 1148.38 916.094 1147.62 916.094 1146.12C916.094 1145.08 916.812 1144.21 918.25 1143.5C920.542 1142.35 922.99 1141.78 925.594 1141.78H927.094C929.177 1141.78 931.125 1142.16 932.938 1142.91C934.771 1143.66 936.177 1144.81 937.156 1146.38C938.406 1148.35 939.031 1152.74 939.031 1159.53C939.031 1163.11 939.156 1165.76 939.406 1167.47C939.677 1169.18 939.812 1170.43 939.812 1171.22C939.812 1172.78 938.812 1173.56 936.812 1173.56C935.917 1173.56 935.083 1173.29 934.312 1172.75C933.542 1172.21 932.927 1171.94 932.469 1171.94C932.01 1171.94 930.792 1172.33 928.812 1173.12C926.833 1173.92 924.844 1174.31 922.844 1174.31C920.031 1174.31 917.823 1173.43 916.219 1171.66C914.635 1169.89 913.844 1167.71 913.844 1165.12V1164.41C913.844 1161.24 915.219 1158.79 917.969 1157.06C919.76 1155.94 922.521 1155.17 926.25 1154.75C930 1154.33 931.979 1154 932.188 1153.75C932.458 1153.44 932.594 1152.91 932.594 1152.16C932.594 1151.93 932.583 1151.69 932.562 1151.44C932.292 1148.48 930.208 1146.99 926.312 1146.97C924.875 1146.97 923.302 1147.21 921.594 1147.69C919.885 1148.15 918.74 1148.38 918.156 1148.38ZM950.406 1156.94C948.635 1155.42 947.75 1153.42 947.75 1150.94C947.75 1148.44 948.792 1146.38 950.875 1144.75C952.979 1143.12 955.76 1142.31 959.219 1142.31H960C961.917 1142.31 963.604 1142.58 965.062 1143.12C967.333 1143.98 968.469 1144.92 968.469 1145.94C968.469 1147.44 967.708 1148.19 966.188 1148.19C966.042 1148.19 965.156 1148 963.531 1147.62C961.927 1147.23 960.458 1147.03 959.125 1147.03C957.792 1147.03 956.594 1147.35 955.531 1148C954.469 1148.65 953.938 1149.58 953.938 1150.81C953.938 1152.04 954.594 1153.05 955.906 1153.84C956.698 1154.32 958.469 1155.03 961.219 1155.97C963.99 1156.91 966.062 1157.95 967.438 1159.09C969.229 1160.57 970.125 1162.47 970.125 1164.78V1165.53C970.125 1168.05 969.021 1170.15 966.812 1171.81C964.625 1173.48 961.948 1174.31 958.781 1174.31H957.969C955.26 1174.31 952.833 1173.83 950.688 1172.88C948.542 1171.9 947.469 1170.84 947.469 1169.72C947.469 1168.14 948.271 1167.34 949.875 1167.34C950.229 1167.34 951.302 1167.66 953.094 1168.28C954.906 1168.89 956.635 1169.19 958.281 1169.19C959.927 1169.19 961.271 1168.85 962.312 1168.19C963.354 1167.52 963.875 1166.57 963.875 1165.34C963.875 1164.09 963.208 1163.05 961.875 1162.22C961.062 1161.7 959.229 1160.94 956.375 1159.94C953.542 1158.92 951.552 1157.92 950.406 1156.94ZM1000.62 1165.41C1000.62 1166.74 1001.27 1167.85 1002.56 1168.75C1003.42 1169.35 1004.62 1169.66 1006.19 1169.66H1006.38C1006.75 1169.59 1007.15 1169.56 1007.56 1169.56C1008.96 1169.56 1010.21 1168.94 1011.31 1167.69C1012.44 1166.44 1013 1165.24 1013 1164.09L1013.06 1163.72L1013.16 1162.06V1160.44C1013.16 1159.67 1012.9 1159.15 1012.38 1158.88C1011.88 1158.58 1010.91 1158.44 1009.47 1158.44H1009.03L1008.81 1158.47H1008.41L1007.09 1158.56C1006.66 1158.62 1006.3 1158.66 1006.03 1158.66C1004.53 1158.66 1003.24 1159.12 1002.16 1160.06C1001.09 1161 1000.56 1162.25 1000.56 1163.81V1164.72C1000.6 1165.05 1000.62 1165.28 1000.62 1165.41ZM998.406 1148.38C997.031 1148.38 996.344 1147.62 996.344 1146.12C996.344 1145.08 997.062 1144.21 998.5 1143.5C1000.79 1142.35 1003.24 1141.78 1005.84 1141.78H1007.34C1009.43 1141.78 1011.38 1142.16 1013.19 1142.91C1015.02 1143.66 1016.43 1144.81 1017.41 1146.38C1018.66 1148.35 1019.28 1152.74 1019.28 1159.53C1019.28 1163.11 1019.41 1165.76 1019.66 1167.47C1019.93 1169.18 1020.06 1170.43 1020.06 1171.22C1020.06 1172.78 1019.06 1173.56 1017.06 1173.56C1016.17 1173.56 1015.33 1173.29 1014.56 1172.75C1013.79 1172.21 1013.18 1171.94 1012.72 1171.94C1012.26 1171.94 1011.04 1172.33 1009.06 1173.12C1007.08 1173.92 1005.09 1174.31 1003.09 1174.31C1000.28 1174.31 998.073 1173.43 996.469 1171.66C994.885 1169.89 994.094 1167.71 994.094 1165.12V1164.41C994.094 1161.24 995.469 1158.79 998.219 1157.06C1000.01 1155.94 1002.77 1155.17 1006.5 1154.75C1010.25 1154.33 1012.23 1154 1012.44 1153.75C1012.71 1153.44 1012.84 1152.91 1012.84 1152.16C1012.84 1151.93 1012.83 1151.69 1012.81 1151.44C1012.54 1148.48 1010.46 1146.99 1006.56 1146.97C1005.12 1146.97 1003.55 1147.21 1001.84 1147.69C1000.14 1148.15 998.99 1148.38 998.406 1148.38ZM873.312 1232.5C871.854 1230.29 871.125 1226.69 871.125 1221.69C871.125 1216.69 870.823 1213.28 870.219 1211.47C869.969 1210.72 869.469 1210.05 868.719 1209.47C867.99 1208.89 867.625 1208.1 867.625 1207.12C867.625 1206.15 868.021 1205.35 868.812 1204.75C868.979 1204.62 869.375 1204.39 870 1204.03C870.625 1203.66 871.042 1203.31 871.25 1203C871.458 1202.71 871.677 1201.71 871.906 1200C872.406 1196.58 873.323 1194.88 874.656 1194.88H875.125C876.188 1194.88 876.938 1195.3 877.375 1196.16C877.604 1196.57 877.833 1197.68 878.062 1199.47C878.312 1201.26 878.646 1202.44 879.062 1203C879.479 1203.54 880.542 1204.11 882.25 1204.72C883.958 1205.32 884.812 1206.06 884.812 1206.94C884.812 1207.79 884.115 1208.44 882.719 1208.88C880.635 1209.52 879.385 1210.25 878.969 1211.06C877.99 1212.96 877.5 1216.78 877.5 1222.53C877.5 1225.2 877.802 1227.03 878.406 1228.03C879.01 1229.01 879.854 1229.71 880.938 1230.12C881.042 1230.17 881.469 1230.3 882.219 1230.53C882.99 1230.74 883.604 1231.02 884.062 1231.38C884.521 1231.71 884.75 1232.27 884.75 1233.06C884.75 1233.83 884.375 1234.48 883.625 1235C882.833 1235.52 881.729 1235.78 880.312 1235.78C877.125 1235.78 874.792 1234.69 873.312 1232.5ZM892.531 1210.44C892.531 1209 892.708 1207.94 893.062 1207.25C893.417 1206.54 894.073 1206.19 895.031 1206.19C895.99 1206.19 897.094 1206.53 898.344 1207.22C899.594 1207.91 900.292 1208.25 900.438 1208.25C900.604 1208.25 900.958 1208.06 901.5 1207.69C903.521 1206.27 905.312 1205.56 906.875 1205.56H907.75C908.708 1205.56 909.51 1205.82 910.156 1206.34C910.823 1206.86 911.156 1207.6 911.156 1208.56C911.156 1209.5 910.74 1210.19 909.906 1210.62C909.552 1210.81 908.812 1210.97 907.688 1211.09C906.562 1211.22 905.458 1211.49 904.375 1211.91C903.312 1212.32 902.365 1213.14 901.531 1214.34C900.323 1216.11 899.719 1219.56 899.719 1224.69L899.594 1228.19L899.531 1230.19C899.531 1232.04 899.229 1233.41 898.625 1234.28C898.042 1235.16 897.042 1235.59 895.625 1235.59H895.156C893.906 1235.59 893.146 1234.96 892.875 1233.69C892.854 1233.58 892.844 1231.6 892.844 1227.75V1221.47L892.812 1220.94V1219.91L892.781 1219.38C892.781 1219.02 892.781 1218.67 892.781 1218.31L892.656 1214.28L892.531 1211.38V1210.44ZM930.969 1217.62C932.302 1217.62 933.448 1217.32 934.406 1216.72C934.927 1216.39 935.188 1215.72 935.188 1214.72V1214.53C935.188 1213.03 934.729 1211.77 933.812 1210.75C932.896 1209.71 931.594 1209.19 929.906 1209.19H929.531C927.635 1209.19 925.885 1209.9 924.281 1211.31C922.698 1212.73 921.906 1214.52 921.906 1216.69V1217.22C921.906 1217.86 922.396 1218.19 923.375 1218.19L923.688 1218.25H924.812L925 1218.22L926.719 1218.09L926.938 1218.06L928.094 1217.97C928.24 1217.95 928.406 1217.93 928.594 1217.91C928.781 1217.89 929.156 1217.83 929.719 1217.75C930.302 1217.67 930.719 1217.62 930.969 1217.62ZM929.312 1236.34H928.594C926.49 1236.32 924.573 1235.94 922.844 1235.19C919.531 1233.73 917.292 1231.23 916.125 1227.69C915.479 1225.71 915.156 1223.71 915.156 1221.69V1220.28C915.177 1218.18 915.583 1216.08 916.375 1214C918 1209.79 920.677 1207 924.406 1205.62C926.156 1205 927.948 1204.69 929.781 1204.69H930.469C933.427 1204.69 935.885 1205.6 937.844 1207.44C939.802 1209.25 940.781 1211.73 940.781 1214.88V1215.5C940.781 1217.71 940.073 1219.26 938.656 1220.16C937.573 1220.84 935.083 1221.47 931.188 1222.03C927.312 1222.59 924.99 1223 924.219 1223.25C922.969 1223.65 922.344 1224.22 922.344 1224.97C922.344 1226.86 923.292 1228.45 925.188 1229.72C926.292 1230.45 928.01 1230.81 930.344 1230.81C931.302 1230.81 932.792 1230.53 934.812 1229.97C936.854 1229.39 938.135 1229.09 938.656 1229.09C939.885 1229.09 940.5 1229.72 940.5 1230.97C940.5 1232.22 939.302 1233.43 936.906 1234.59C934.531 1235.76 932 1236.34 929.312 1236.34ZM962.844 1217.62C964.177 1217.62 965.323 1217.32 966.281 1216.72C966.802 1216.39 967.062 1215.72 967.062 1214.72V1214.53C967.062 1213.03 966.604 1211.77 965.688 1210.75C964.771 1209.71 963.469 1209.19 961.781 1209.19H961.406C959.51 1209.19 957.76 1209.9 956.156 1211.31C954.573 1212.73 953.781 1214.52 953.781 1216.69V1217.22C953.781 1217.86 954.271 1218.19 955.25 1218.19L955.562 1218.25H956.688L956.875 1218.22L958.594 1218.09L958.812 1218.06L959.969 1217.97C960.115 1217.95 960.281 1217.93 960.469 1217.91C960.656 1217.89 961.031 1217.83 961.594 1217.75C962.177 1217.67 962.594 1217.62 962.844 1217.62ZM961.188 1236.34H960.469C958.365 1236.32 956.448 1235.94 954.719 1235.19C951.406 1233.73 949.167 1231.23 948 1227.69C947.354 1225.71 947.031 1223.71 947.031 1221.69V1220.28C947.052 1218.18 947.458 1216.08 948.25 1214C949.875 1209.79 952.552 1207 956.281 1205.62C958.031 1205 959.823 1204.69 961.656 1204.69H962.344C965.302 1204.69 967.76 1205.6 969.719 1207.44C971.677 1209.25 972.656 1211.73 972.656 1214.88V1215.5C972.656 1217.71 971.948 1219.26 970.531 1220.16C969.448 1220.84 966.958 1221.47 963.062 1222.03C959.188 1222.59 956.865 1223 956.094 1223.25C954.844 1223.65 954.219 1224.22 954.219 1224.97C954.219 1226.86 955.167 1228.45 957.062 1229.72C958.167 1230.45 959.885 1230.81 962.219 1230.81C963.177 1230.81 964.667 1230.53 966.688 1229.97C968.729 1229.39 970.01 1229.09 970.531 1229.09C971.76 1229.09 972.375 1229.72 972.375 1230.97C972.375 1232.22 971.177 1233.43 968.781 1234.59C966.406 1235.76 963.875 1236.34 961.188 1236.34ZM985.969 1228.84C987.427 1228.84 988.156 1229.57 988.156 1231.03C988.26 1231.45 988.312 1231.75 988.312 1231.94L988.344 1232.47V1232.75L988.312 1232.88C988.312 1235.23 987.375 1236.41 985.5 1236.41L984.719 1236.5H983.906L983.781 1236.47H983.5C983.333 1236.43 983.208 1236.41 983.125 1236.41C981.479 1236.41 980.656 1235.36 980.656 1233.28V1232.09C980.719 1231.78 980.75 1231.43 980.75 1231.03C980.75 1230.64 980.958 1230.18 981.375 1229.66C981.812 1229.14 982.427 1228.88 983.219 1228.88C983.469 1228.81 983.635 1228.78 983.719 1228.78L984.531 1228.72H984.812L984.938 1228.75L985.719 1228.81C985.802 1228.83 985.885 1228.84 985.969 1228.84ZM1002.22 1228.84C1003.68 1228.84 1004.41 1229.57 1004.41 1231.03C1004.51 1231.45 1004.56 1231.75 1004.56 1231.94L1004.59 1232.47V1232.75L1004.56 1232.88C1004.56 1235.23 1003.62 1236.41 1001.75 1236.41L1000.97 1236.5H1000.16L1000.03 1236.47H999.75C999.583 1236.43 999.458 1236.41 999.375 1236.41C997.729 1236.41 996.906 1235.36 996.906 1233.28V1232.09C996.969 1231.78 997 1231.43 997 1231.03C997 1230.64 997.208 1230.18 997.625 1229.66C998.062 1229.14 998.677 1228.88 999.469 1228.88C999.719 1228.81 999.885 1228.78 999.969 1228.78L1000.78 1228.72H1001.06L1001.19 1228.75L1001.97 1228.81C1002.05 1228.83 1002.14 1228.84 1002.22 1228.84ZM1018.47 1228.84C1019.93 1228.84 1020.66 1229.57 1020.66 1231.03C1020.76 1231.45 1020.81 1231.75 1020.81 1231.94L1020.84 1232.47V1232.75L1020.81 1232.88C1020.81 1235.23 1019.88 1236.41 1018 1236.41L1017.22 1236.5H1016.41L1016.28 1236.47H1016C1015.83 1236.43 1015.71 1236.41 1015.62 1236.41C1013.98 1236.41 1013.16 1235.36 1013.16 1233.28V1232.09C1013.22 1231.78 1013.25 1231.43 1013.25 1231.03C1013.25 1230.64 1013.46 1230.18 1013.88 1229.66C1014.31 1229.14 1014.93 1228.88 1015.72 1228.88C1015.97 1228.81 1016.14 1228.78 1016.22 1228.78L1017.03 1228.72H1017.31L1017.44 1228.75L1018.22 1228.81C1018.3 1228.83 1018.39 1228.84 1018.47 1228.84Z" fill="#F1F1F1"/>
<path d="M538.093 3256.67C540.153 3242.74 540.181 3201.39 539.075 3187.49L568.166 3181.53C570.6 3196.39 570.586 3238.76 568.69 3255.14C573.227 3256.11 575.802 3256.41 580.436 3256.55C580.436 3256.55 583.864 3289.4 546.468 3286.17C509.073 3282.94 524.195 3257.52 524.195 3257.52C530.193 3258 533.284 3257.88 538.093 3256.67Z" fill="#BE7462"/>
<path d="M477.91 3106.35C490.28 3062.64 520.512 3035.22 534.082 3026.98L617.86 3072.17L624.778 3181.32C626.244 3182.74 625.023 3185.19 625.023 3185.19L624.778 3181.32C622.285 3178.91 612.011 3179.46 574.704 3200.05C515.474 3232.74 466.319 3191.27 462.447 3181.34C458.575 3171.42 461.248 3153.8 465.767 3136.15C465.767 3136.15 451.44 3133.35 455.895 3117.97C460.35 3102.59 477.91 3106.35 477.91 3106.35Z" fill="#CC816C"/>
<path d="M464.321 3159.31C484.146 3171.98 521.928 3164.59 536.102 3149.83M536.102 3149.83L534.784 3147.78M536.102 3149.83L537.413 3151.55" stroke="#C96F5C" stroke-width="4" stroke-linecap="round" stroke-linejoin="round"/>
<path d="M546.309 3126.92C545.158 3131.71 537.318 3133.92 528.798 3131.87C520.278 3129.82 514.304 3124.28 515.455 3119.5C516.606 3114.72 524.446 3112.5 532.966 3114.55C541.486 3116.6 547.46 3122.14 546.309 3126.92Z" fill="#BC291D" fill-opacity="0.2"/>
<path d="M525.02 3077.14C531.604 3080.97 534.838 3091.58 536.777 3088.05C537.698 3086.37 533.633 3078.61 528.008 3073.3C521.789 3067.44 510.128 3066.47 509.266 3068.83C507.625 3073.34 518.436 3073.3 525.02 3077.14Z" fill="#463638"/>
<path d="M524.905 3102.11C517.607 3086.67 498.59 3096.94 498.59 3096.94C509.29 3098.31 514.559 3099.35 519.115 3106.35" stroke="#463638" stroke-width="4" stroke-linecap="round" stroke-linejoin="round"/>
<path d="M561.084 3428.7L526.432 3427.02C520.736 3430.39 522.235 3452.59 523.552 3486.32C518.11 3488.27 505.777 3495.68 499.985 3509.67C494.193 3523.67 533.673 3520.63 554.136 3517.37L558.204 3488.01C561.698 3463.77 562.93 3450.51 561.084 3428.7Z" fill="#CC816C"/>
<path d="M495.743 3446.53C496.845 3436.25 495.258 3391.04 497.792 3380.7L580.4 3386.07L582.193 3446.53C569.066 3450.55 507.196 3453.58 495.743 3446.53Z" fill="#7E4D4C"/>
<path d="M572.498 3134.12C572.779 3133.54 573.134 3132.99 573.554 3132.46C587.513 3108.84 570.414 3065.39 559.853 3046.2C552.667 3043.69 552.091 3075.83 552.702 3092.21C536.864 3083.62 543.138 3054.06 548.254 3040.35L528.632 3062.27C531.597 3055.86 537.353 3042.52 536.655 3040.35C535.957 3038.18 513.748 3049.58 502.731 3055.54C503.428 3050.16 516.975 3043.17 523.661 3040.35C511.87 3030.71 471.713 3069.1 453.108 3089.51C450.946 3080.92 466.219 3059.15 474.126 3049.34L458.515 3062.27C516.004 2969.99 563.457 3002.05 579.998 3029.61C658.014 3031.04 674.79 3095.85 672.658 3131.27C672.714 3132.25 672.647 3133.21 672.44 3134.12C672.526 3133.2 672.599 3132.24 672.658 3131.27C672.133 3122 660.765 3110.33 654.562 3105.22C689.01 3209.39 584.533 3253.22 595.085 3244.84C603.527 3238.13 609.126 3214.86 610.87 3204.06C603.864 3215.35 587.672 3238.95 578.951 3243C570.231 3247.05 558.341 3241.31 553.486 3237.94C564.091 3237.94 576.858 3222.22 581.917 3214.36C575.783 3220.48 562.242 3231.95 557.149 3228.95C552.056 3225.94 550.085 3217.97 549.736 3214.36C576.806 3202.7 582.469 3175.34 581.917 3163.11C585.596 3163.08 594.571 3158.25 599.969 3146.09C610.366 3122.66 581.218 3122.86 573.554 3132.46C573.22 3133.03 572.868 3133.58 572.498 3134.12Z" fill="#463638"/>
<path d="M415.527 3251.76C450.261 3244.18 473.544 3246.3 480.845 3248.3C489.682 3256.12 502.054 3273.28 480.845 3279.43C459.636 3285.57 428.463 3276.86 415.527 3271.74C399.091 3275.67 366.859 3288.77 365.066 3263.54C363.273 3238.31 398.323 3249.03 415.527 3251.76Z" fill="#CC816C"/>
<path d="M555.553 3245.97C546.127 3247.51 540.014 3242.17 538.136 3239.31C492.849 3243.31 487.418 3338.69 481.655 3384.42C588.468 3394.79 596.537 3381.09 600.379 3374.04C604.221 3367 590.902 3331.65 588.084 3321.79C585.267 3311.93 592.174 3279.4 588.084 3262.49C586.547 3256.14 577.112 3241.06 572.587 3234.31C570.837 3237.56 564.98 3244.43 555.553 3245.97Z" fill="#EFD7C9"/>
<path d="M529.592 3246.75L466.733 3234.51C462.013 3254.59 470.083 3289.41 474.707 3304.31L529.315 3292.65L529.592 3246.75Z" fill="#EFD7C9"/>
<path d="M548.125 3289.77C532.369 3296.93 519.325 3296.83 494.193 3299.95C494.191 3299.95 489.597 3315.13 489.597 3323.33C494.049 3301.42 535.211 3301.04 548.125 3289.77Z" fill="#DCC6B9"/>
<path d="M555.685 3256.94C555.685 3256.94 541.595 3249.47 522.382 3245.33C524.547 3242.99 524.801 3243.84 527.506 3242L555.685 3256.94Z" fill="#DCC6B9"/>
</g>
<defs>
<clipPath id="clip0">
<rect width="1440" height="3500" fill="white"/>
</clipPath>
</defs>
</svg>
